<?xml version="1.0" encoding="UTF-8"?>
<mxfile host="app.diagrams.net" agent="Mozilla/5.0 (Windows NT 10.0; Win64; x64) AppleWebKit/537.36 (KHTML, like Gecko) Chrome/136.0.0.0 YaBrowser/25.6.0.0 Safari/537.36" version="27.2.0">
  <diagram name="Страница — 1" id="7wpDZ7R7Cqz2rl0AdxME">
    <mxGraphModel dx="8784" dy="4110" grid="1" gridSize="10" guides="1" tooltips="1" connect="1" arrows="1" fold="1" page="1" pageScale="1" pageWidth="827" pageHeight="1169" math="0" shadow="0">
      <root>
        <mxCell id="0" />
        <mxCell id="1" parent="0" />
        <mxCell id="HwbPbKse9-UZTt6arCgf-1" value="" style="rounded=1;whiteSpace=wrap;html=1;" parent="1" vertex="1">
          <mxGeometry x="-370" y="1570" width="700" height="540" as="geometry" />
        </mxCell>
        <object placeholders="1" c4Name="Поставщик ресурсов ЖКХ" c4Type="Software System" c4Description="" label="&lt;font style=&quot;font-size: 16px&quot;&gt;&lt;b&gt;%c4Name%&lt;/b&gt;&lt;/font&gt;&lt;div&gt;[%c4Type%]&lt;/div&gt;&lt;br&gt;&lt;div&gt;&lt;font style=&quot;font-size: 11px&quot;&gt;&lt;font color=&quot;#cccccc&quot;&gt;%c4Description%&lt;/font&gt;&lt;/div&gt;" id="HwbPbKse9-UZTt6arCgf-2">
          <mxCell style="rounded=1;whiteSpace=wrap;html=1;labelBackgroundColor=none;fillColor=#8C8496;fontColor=#ffffff;align=center;arcSize=10;strokeColor=#736782;metaEdit=1;resizable=0;points=[[0.25,0,0],[0.5,0,0],[0.75,0,0],[1,0.25,0],[1,0.5,0],[1,0.75,0],[0.75,1,0],[0.5,1,0],[0.25,1,0],[0,0.75,0],[0,0.5,0],[0,0.25,0]];" parent="1" vertex="1">
            <mxGeometry x="2882" y="400" width="240" height="120" as="geometry" />
          </mxCell>
        </object>
        <object placeholders="1" c4Name="Поставщик ресурсов ЖКХ" c4Type="Software System" c4Description="" label="&lt;font style=&quot;font-size: 16px&quot;&gt;&lt;b&gt;%c4Name%&lt;/b&gt;&lt;/font&gt;&lt;div&gt;[%c4Type%]&lt;/div&gt;&lt;br&gt;&lt;div&gt;&lt;font style=&quot;font-size: 11px&quot;&gt;&lt;font color=&quot;#cccccc&quot;&gt;%c4Description%&lt;/font&gt;&lt;/div&gt;" id="HwbPbKse9-UZTt6arCgf-3">
          <mxCell style="rounded=1;whiteSpace=wrap;html=1;labelBackgroundColor=none;fillColor=#8C8496;fontColor=#ffffff;align=center;arcSize=10;strokeColor=#736782;metaEdit=1;resizable=0;points=[[0.25,0,0],[0.5,0,0],[0.75,0,0],[1,0.25,0],[1,0.5,0],[1,0.75,0],[0.75,1,0],[0.5,1,0],[0.25,1,0],[0,0.75,0],[0,0.5,0],[0,0.25,0]];" parent="1" vertex="1">
            <mxGeometry x="2842" y="425" width="240" height="120" as="geometry" />
          </mxCell>
        </object>
        <mxCell id="HwbPbKse9-UZTt6arCgf-4" value="" style="rounded=1;whiteSpace=wrap;html=1;" parent="1" vertex="1">
          <mxGeometry x="530" y="1310" width="420" height="520" as="geometry" />
        </mxCell>
        <mxCell id="HwbPbKse9-UZTt6arCgf-5" value="" style="rounded=1;whiteSpace=wrap;html=1;" parent="1" vertex="1">
          <mxGeometry x="-5" y="350" width="910" height="840" as="geometry" />
        </mxCell>
        <mxCell id="HwbPbKse9-UZTt6arCgf-6" value="" style="rounded=1;whiteSpace=wrap;html=1;" parent="1" vertex="1">
          <mxGeometry x="1160" y="370" width="1250" height="830" as="geometry" />
        </mxCell>
        <mxCell id="HwbPbKse9-UZTt6arCgf-7" style="edgeStyle=orthogonalEdgeStyle;rounded=0;orthogonalLoop=1;jettySize=auto;html=1;exitX=0.5;exitY=1;exitDx=0;exitDy=0;exitPerimeter=0;" parent="1" source="HwbPbKse9-UZTt6arCgf-60" target="HwbPbKse9-UZTt6arCgf-41" edge="1">
          <mxGeometry relative="1" as="geometry" />
        </mxCell>
        <mxCell id="HwbPbKse9-UZTt6arCgf-8" value="[REST]" style="edgeLabel;html=1;align=center;verticalAlign=middle;resizable=0;points=[];" parent="HwbPbKse9-UZTt6arCgf-7" connectable="0" vertex="1">
          <mxGeometry x="-0.087" relative="1" as="geometry">
            <mxPoint as="offset" />
          </mxGeometry>
        </mxCell>
        <object placeholders="1" c4Name="crm-db" c4Type="Container" c4Technology="MSSQL" c4Description="База данных системы CRM" label="&lt;font style=&quot;font-size: 16px&quot;&gt;&lt;b&gt;%c4Name%&lt;/b&gt;&lt;/font&gt;&lt;div&gt;[%c4Type%:&amp;nbsp;%c4Technology%]&lt;/div&gt;&lt;br&gt;&lt;div&gt;&lt;font style=&quot;font-size: 11px&quot;&gt;&lt;font color=&quot;#E6E6E6&quot;&gt;%c4Description%&lt;/font&gt;&lt;/div&gt;" id="HwbPbKse9-UZTt6arCgf-9">
          <mxCell style="shape=cylinder3;size=15;whiteSpace=wrap;html=1;boundedLbl=1;rounded=0;labelBackgroundColor=none;fillColor=#23A2D9;fontSize=12;fontColor=#ffffff;align=center;strokeColor=#0E7DAD;metaEdit=1;points=[[0.5,0,0],[1,0.25,0],[1,0.5,0],[1,0.75,0],[0.5,1,0],[0,0.75,0],[0,0.5,0],[0,0.25,0]];resizable=0;" parent="1" vertex="1">
            <mxGeometry x="330" y="1040" width="240" height="120" as="geometry" />
          </mxCell>
        </object>
        <mxCell id="HwbPbKse9-UZTt6arCgf-10" style="edgeStyle=orthogonalEdgeStyle;rounded=0;orthogonalLoop=1;jettySize=auto;html=1;exitX=0;exitY=0.75;exitDx=0;exitDy=0;exitPerimeter=0;entryX=0.5;entryY=0;entryDx=0;entryDy=0;entryPerimeter=0;" parent="1" source="HwbPbKse9-UZTt6arCgf-12" target="HwbPbKse9-UZTt6arCgf-62" edge="1">
          <mxGeometry relative="1" as="geometry">
            <Array as="points">
              <mxPoint x="-200" y="970" />
            </Array>
          </mxGeometry>
        </mxCell>
        <mxCell id="HwbPbKse9-UZTt6arCgf-11" value="Аутентификация&amp;nbsp;&lt;div&gt;менеджеров&lt;/div&gt;" style="edgeLabel;html=1;align=center;verticalAlign=middle;resizable=0;points=[];" parent="HwbPbKse9-UZTt6arCgf-10" connectable="0" vertex="1">
          <mxGeometry x="0.233" y="-1" relative="1" as="geometry">
            <mxPoint as="offset" />
          </mxGeometry>
        </mxCell>
        <object placeholders="1" c4Name="client-crm-app" c4Type="Container" c4Technology="e.g. SpringBoot, ElasticSearch,Container: Dynamics CRM" c4Description="Система управления клиентскими данными" label="&lt;font style=&quot;font-size: 16px&quot;&gt;&lt;b&gt;%c4Name%&lt;/b&gt;&lt;/font&gt;&lt;div&gt;[%c4Type%: %c4Technology%]&lt;/div&gt;&lt;br&gt;&lt;div&gt;&lt;font style=&quot;font-size: 11px&quot;&gt;&lt;font color=&quot;#E6E6E6&quot;&gt;%c4Description%&lt;/font&gt;&lt;/div&gt;" id="HwbPbKse9-UZTt6arCgf-12">
          <mxCell style="rounded=1;whiteSpace=wrap;html=1;fontSize=11;labelBackgroundColor=none;fillColor=#23A2D9;fontColor=#ffffff;align=center;arcSize=10;strokeColor=#0E7DAD;metaEdit=1;resizable=0;points=[[0.25,0,0],[0.5,0,0],[0.75,0,0],[1,0.25,0],[1,0.5,0],[1,0.75,0],[0.75,1,0],[0.5,1,0],[0.25,1,0],[0,0.75,0],[0,0.5,0],[0,0.25,0]];" parent="1" vertex="1">
            <mxGeometry x="330" y="880" width="240" height="120" as="geometry" />
          </mxCell>
        </object>
        <mxCell id="HwbPbKse9-UZTt6arCgf-13" style="edgeStyle=orthogonalEdgeStyle;rounded=0;orthogonalLoop=1;jettySize=auto;html=1;exitX=0;exitY=0.75;exitDx=0;exitDy=0;exitPerimeter=0;" parent="1" source="HwbPbKse9-UZTt6arCgf-15" target="HwbPbKse9-UZTt6arCgf-62" edge="1">
          <mxGeometry relative="1" as="geometry">
            <Array as="points">
              <mxPoint x="1500" y="770" />
              <mxPoint x="1500" y="960" />
              <mxPoint x="1170" y="960" />
              <mxPoint x="1170" y="1180" />
              <mxPoint x="-200" y="1180" />
            </Array>
          </mxGeometry>
        </mxCell>
        <mxCell id="HwbPbKse9-UZTt6arCgf-14" value="Аутентификация&amp;nbsp;&lt;div&gt;менеджеров&lt;/div&gt;" style="edgeLabel;html=1;align=center;verticalAlign=middle;resizable=0;points=[];" parent="HwbPbKse9-UZTt6arCgf-13" connectable="0" vertex="1">
          <mxGeometry x="0.3218" y="6" relative="1" as="geometry">
            <mxPoint as="offset" />
          </mxGeometry>
        </mxCell>
        <object placeholders="1" c4Name="CRM" c4Type="Container" c4Technology="Container: Kotlin, Spring Boot" c4Description="Система управления данными собственников" label="&lt;font style=&quot;font-size: 16px&quot;&gt;&lt;b&gt;%c4Name%&lt;/b&gt;&lt;/font&gt;&lt;div&gt;[%c4Type%: %c4Technology%]&lt;/div&gt;&lt;br&gt;&lt;div&gt;&lt;font style=&quot;font-size: 11px&quot;&gt;&lt;font color=&quot;#E6E6E6&quot;&gt;%c4Description%&lt;/font&gt;&lt;/div&gt;" id="HwbPbKse9-UZTt6arCgf-15">
          <mxCell style="rounded=1;whiteSpace=wrap;html=1;fontSize=11;labelBackgroundColor=none;fillColor=#23A2D9;fontColor=#ffffff;align=center;arcSize=10;strokeColor=#0E7DAD;metaEdit=1;resizable=0;points=[[0.25,0,0],[0.5,0,0],[0.75,0,0],[1,0.25,0],[1,0.5,0],[1,0.75,0],[0.75,1,0],[0.5,1,0],[0.25,1,0],[0,0.75,0],[0,0.5,0],[0,0.25,0]];" parent="1" vertex="1">
            <mxGeometry x="1610" y="680" width="240" height="120" as="geometry" />
          </mxCell>
        </object>
        <mxCell id="HwbPbKse9-UZTt6arCgf-118" value="" style="edgeStyle=orthogonalEdgeStyle;rounded=0;orthogonalLoop=1;jettySize=auto;html=1;" parent="1" source="HwbPbKse9-UZTt6arCgf-16" target="HwbPbKse9-UZTt6arCgf-15" edge="1">
          <mxGeometry relative="1" as="geometry" />
        </mxCell>
        <mxCell id="HwbPbKse9-UZTt6arCgf-120" value="" style="edgeStyle=orthogonalEdgeStyle;rounded=0;orthogonalLoop=1;jettySize=auto;html=1;" parent="1" source="HwbPbKse9-UZTt6arCgf-16" target="HwbPbKse9-UZTt6arCgf-15" edge="1">
          <mxGeometry relative="1" as="geometry" />
        </mxCell>
        <object placeholders="1" c4Name="crm-tenant-db" c4Type="Container" c4Technology="PostgreSQL" c4Description="База данных CRM по собственникам" label="&lt;font style=&quot;font-size: 16px&quot;&gt;&lt;b&gt;%c4Name%&lt;/b&gt;&lt;/font&gt;&lt;div&gt;[%c4Type%:&amp;nbsp;%c4Technology%]&lt;/div&gt;&lt;br&gt;&lt;div&gt;&lt;font style=&quot;font-size: 11px&quot;&gt;&lt;font color=&quot;#E6E6E6&quot;&gt;%c4Description%&lt;/font&gt;&lt;/div&gt;" id="HwbPbKse9-UZTt6arCgf-16">
          <mxCell style="shape=cylinder3;size=15;whiteSpace=wrap;html=1;boundedLbl=1;rounded=0;labelBackgroundColor=none;fillColor=#23A2D9;fontSize=12;fontColor=#ffffff;align=center;strokeColor=#0E7DAD;metaEdit=1;points=[[0.5,0,0],[1,0.25,0],[1,0.5,0],[1,0.75,0],[0.5,1,0],[0,0.75,0],[0,0.5,0],[0,0.25,0]];resizable=0;" parent="1" vertex="1">
            <mxGeometry x="1609" y="860" width="240" height="120" as="geometry" />
          </mxCell>
        </object>
        <mxCell id="HwbPbKse9-UZTt6arCgf-17" style="edgeStyle=orthogonalEdgeStyle;rounded=0;orthogonalLoop=1;jettySize=auto;html=1;entryX=0.5;entryY=0;entryDx=0;entryDy=0;entryPerimeter=0;" parent="1" source="HwbPbKse9-UZTt6arCgf-12" target="HwbPbKse9-UZTt6arCgf-9" edge="1">
          <mxGeometry relative="1" as="geometry" />
        </mxCell>
        <mxCell id="HwbPbKse9-UZTt6arCgf-18" value="[JDBC]" style="edgeLabel;html=1;align=center;verticalAlign=middle;resizable=0;points=[];" parent="HwbPbKse9-UZTt6arCgf-17" connectable="0" vertex="1">
          <mxGeometry x="-0.2713" relative="1" as="geometry">
            <mxPoint as="offset" />
          </mxGeometry>
        </mxCell>
        <mxCell id="HwbPbKse9-UZTt6arCgf-19" style="edgeStyle=orthogonalEdgeStyle;rounded=0;orthogonalLoop=1;jettySize=auto;html=1;entryX=0.5;entryY=0;entryDx=0;entryDy=0;entryPerimeter=0;" parent="1" source="HwbPbKse9-UZTt6arCgf-15" target="HwbPbKse9-UZTt6arCgf-16" edge="1">
          <mxGeometry relative="1" as="geometry" />
        </mxCell>
        <mxCell id="HwbPbKse9-UZTt6arCgf-20" value="&lt;div&gt;[JDBC]&lt;/div&gt;" style="edgeLabel;html=1;align=center;verticalAlign=middle;resizable=0;points=[];" parent="HwbPbKse9-UZTt6arCgf-19" connectable="0" vertex="1">
          <mxGeometry x="-0.0327" y="1" relative="1" as="geometry">
            <mxPoint as="offset" />
          </mxGeometry>
        </mxCell>
        <mxCell id="HwbPbKse9-UZTt6arCgf-21" style="edgeStyle=orthogonalEdgeStyle;rounded=0;orthogonalLoop=1;jettySize=auto;html=1;entryX=0;entryY=0.25;entryDx=0;entryDy=0;entryPerimeter=0;exitX=0.366;exitY=0.981;exitDx=0;exitDy=0;exitPerimeter=0;" parent="1" source="HwbPbKse9-UZTt6arCgf-60" target="HwbPbKse9-UZTt6arCgf-12" edge="1">
          <mxGeometry relative="1" as="geometry">
            <Array as="points">
              <mxPoint x="418" y="540" />
              <mxPoint x="300" y="540" />
              <mxPoint x="300" y="910" />
            </Array>
            <mxPoint x="300" y="650" as="sourcePoint" />
            <mxPoint x="300" y="950" as="targetPoint" />
          </mxGeometry>
        </mxCell>
        <mxCell id="HwbPbKse9-UZTt6arCgf-22" value="&lt;div&gt;Регистрация клиента&lt;/div&gt;Карточка клиента&lt;div&gt;Профиль клиента&lt;/div&gt;&lt;div&gt;[REST]&lt;/div&gt;" style="edgeLabel;html=1;align=center;verticalAlign=middle;resizable=0;points=[];" parent="HwbPbKse9-UZTt6arCgf-21" connectable="0" vertex="1">
          <mxGeometry x="0.5831" y="1" relative="1" as="geometry">
            <mxPoint x="9" y="28" as="offset" />
          </mxGeometry>
        </mxCell>
        <mxCell id="HwbPbKse9-UZTt6arCgf-23" style="edgeStyle=orthogonalEdgeStyle;rounded=0;orthogonalLoop=1;jettySize=auto;html=1;exitX=0.5;exitY=1;exitDx=0;exitDy=0;exitPerimeter=0;" parent="1" source="HwbPbKse9-UZTt6arCgf-75" target="HwbPbKse9-UZTt6arCgf-26" edge="1">
          <mxGeometry relative="1" as="geometry">
            <mxPoint x="1139.9200000000005" y="489.9999999999998" as="sourcePoint" />
          </mxGeometry>
        </mxCell>
        <mxCell id="HwbPbKse9-UZTt6arCgf-24" value="[REST, WS]" style="edgeLabel;html=1;align=center;verticalAlign=middle;resizable=0;points=[];" parent="HwbPbKse9-UZTt6arCgf-23" connectable="0" vertex="1">
          <mxGeometry x="-0.2095" y="1" relative="1" as="geometry">
            <mxPoint as="offset" />
          </mxGeometry>
        </mxCell>
        <mxCell id="HwbPbKse9-UZTt6arCgf-25" style="edgeStyle=orthogonalEdgeStyle;rounded=0;orthogonalLoop=1;jettySize=auto;html=1;" parent="1" source="HwbPbKse9-UZTt6arCgf-26" target="HwbPbKse9-UZTt6arCgf-97" edge="1">
          <mxGeometry relative="1" as="geometry">
            <Array as="points">
              <mxPoint x="2660" y="640" />
              <mxPoint x="2660" y="535" />
            </Array>
          </mxGeometry>
        </mxCell>
        <mxCell id="HwbPbKse9-UZTt6arCgf-137" style="edgeStyle=orthogonalEdgeStyle;rounded=0;orthogonalLoop=1;jettySize=auto;html=1;" parent="1" source="HwbPbKse9-UZTt6arCgf-26" target="HwbPbKse9-UZTt6arCgf-28" edge="1">
          <mxGeometry relative="1" as="geometry">
            <Array as="points">
              <mxPoint x="2440" y="640" />
              <mxPoint x="2440" y="640" />
            </Array>
          </mxGeometry>
        </mxCell>
        <object placeholders="1" c4Name="tenant-core-app" c4Type="Container" c4Technology="Container: Kotlin, SpringBoot" c4Description="Приложение для предоставления услуг собственникам" label="&lt;font style=&quot;font-size: 16px&quot;&gt;&lt;b&gt;%c4Name%&lt;/b&gt;&lt;/font&gt;&lt;div&gt;[%c4Type%: %c4Technology%]&lt;/div&gt;&lt;br&gt;&lt;div&gt;&lt;font style=&quot;font-size: 11px&quot;&gt;&lt;font color=&quot;#E6E6E6&quot;&gt;%c4Description%&lt;/font&gt;&lt;/div&gt;" id="HwbPbKse9-UZTt6arCgf-26">
          <mxCell style="rounded=1;whiteSpace=wrap;html=1;fontSize=11;labelBackgroundColor=none;fillColor=#23A2D9;fontColor=#ffffff;align=center;arcSize=10;strokeColor=#0E7DAD;metaEdit=1;resizable=0;points=[[0.25,0,0],[0.5,0,0],[0.75,0,0],[1,0.25,0],[1,0.5,0],[1,0.75,0],[0.75,1,0],[0.5,1,0],[0.25,1,0],[0,0.75,0],[0,0.5,0],[0,0.25,0]];" parent="1" vertex="1">
            <mxGeometry x="1170" y="580" width="240" height="120" as="geometry" />
          </mxCell>
        </object>
        <object placeholders="1" c4Name="Поставщик ресурсов ЖКХ" c4Type="Software System" c4Description="." label="&lt;font style=&quot;font-size: 16px&quot;&gt;&lt;b&gt;%c4Name%&lt;/b&gt;&lt;/font&gt;&lt;div&gt;[%c4Type%]&lt;/div&gt;&lt;br&gt;&lt;div&gt;&lt;font style=&quot;font-size: 11px&quot;&gt;&lt;font color=&quot;#cccccc&quot;&gt;%c4Description%&lt;/font&gt;&lt;/div&gt;" id="HwbPbKse9-UZTt6arCgf-27">
          <mxCell style="rounded=1;whiteSpace=wrap;html=1;labelBackgroundColor=none;fillColor=#8C8496;fontColor=#ffffff;align=center;arcSize=10;strokeColor=#736782;metaEdit=1;resizable=0;points=[[0.25,0,0],[0.5,0,0],[0.75,0,0],[1,0.25,0],[1,0.5,0],[1,0.75,0],[0.75,1,0],[0.5,1,0],[0.25,1,0],[0,0.75,0],[0,0.5,0],[0,0.25,0]];" parent="1" vertex="1">
            <mxGeometry x="2802" y="445" width="240" height="120" as="geometry" />
          </mxCell>
        </object>
        <object placeholders="1" c4Name="Платёжная система" c4Type="Software System" c4Description="Провайдер онлайн-платежей" label="&lt;font style=&quot;font-size: 16px&quot;&gt;&lt;b&gt;%c4Name%&lt;/b&gt;&lt;/font&gt;&lt;div&gt;[%c4Type%]&lt;/div&gt;&lt;br&gt;&lt;div&gt;&lt;font style=&quot;font-size: 11px&quot;&gt;&lt;font color=&quot;#cccccc&quot;&gt;%c4Description%&lt;/font&gt;&lt;/div&gt;" id="HwbPbKse9-UZTt6arCgf-28">
          <mxCell style="rounded=1;whiteSpace=wrap;html=1;labelBackgroundColor=none;fillColor=#8C8496;fontColor=#ffffff;align=center;arcSize=10;strokeColor=#736782;metaEdit=1;resizable=0;points=[[0.25,0,0],[0.5,0,0],[0.75,0,0],[1,0.25,0],[1,0.5,0],[1,0.75,0],[0.75,1,0],[0.5,1,0],[0.25,1,0],[0,0.75,0],[0,0.5,0],[0,0.25,0]];" parent="1" vertex="1">
            <mxGeometry x="2772" y="620" width="240" height="120" as="geometry" />
          </mxCell>
        </object>
        <mxCell id="HwbPbKse9-UZTt6arCgf-30" style="edgeStyle=orthogonalEdgeStyle;rounded=0;orthogonalLoop=1;jettySize=auto;html=1;exitX=1;exitY=0.5;exitDx=0;exitDy=0;exitPerimeter=0;" parent="1" source="HwbPbKse9-UZTt6arCgf-26" edge="1">
          <mxGeometry relative="1" as="geometry">
            <Array as="points">
              <mxPoint x="1500" y="640" />
              <mxPoint x="1500" y="770" />
            </Array>
            <mxPoint x="1610" y="770" as="targetPoint" />
          </mxGeometry>
        </mxCell>
        <mxCell id="HwbPbKse9-UZTt6arCgf-31" value="Получение клиентских данных&lt;div&gt;[REST]&lt;/div&gt;" style="edgeLabel;html=1;align=center;verticalAlign=middle;resizable=0;points=[];" parent="HwbPbKse9-UZTt6arCgf-30" connectable="0" vertex="1">
          <mxGeometry x="-0.3216" y="2" relative="1" as="geometry">
            <mxPoint x="13" y="48" as="offset" />
          </mxGeometry>
        </mxCell>
        <object placeholders="1" c4Name="tenant-core-db" c4Type="Container" c4Technology="PostgreSQL" c4Description="База данных услуг ЖКХ по собственникам" label="&lt;font style=&quot;font-size: 16px&quot;&gt;&lt;b&gt;%c4Name%&lt;/b&gt;&lt;/font&gt;&lt;div&gt;[%c4Type%:&amp;nbsp;%c4Technology%]&lt;/div&gt;&lt;br&gt;&lt;div&gt;&lt;font style=&quot;font-size: 11px&quot;&gt;&lt;font color=&quot;#E6E6E6&quot;&gt;%c4Description%&lt;/font&gt;&lt;/div&gt;" id="HwbPbKse9-UZTt6arCgf-32">
          <mxCell style="shape=cylinder3;size=15;whiteSpace=wrap;html=1;boundedLbl=1;rounded=0;labelBackgroundColor=none;fillColor=#23A2D9;fontSize=12;fontColor=#ffffff;align=center;strokeColor=#0E7DAD;metaEdit=1;points=[[0.5,0,0],[1,0.25,0],[1,0.5,0],[1,0.75,0],[0.5,1,0],[0,0.75,0],[0,0.5,0],[0,0.25,0]];resizable=0;" parent="1" vertex="1">
            <mxGeometry x="1170" y="740" width="240" height="120" as="geometry" />
          </mxCell>
        </object>
        <mxCell id="HwbPbKse9-UZTt6arCgf-33" style="edgeStyle=orthogonalEdgeStyle;rounded=0;orthogonalLoop=1;jettySize=auto;html=1;entryX=0.5;entryY=0;entryDx=0;entryDy=0;entryPerimeter=0;" parent="1" source="HwbPbKse9-UZTt6arCgf-26" target="HwbPbKse9-UZTt6arCgf-32" edge="1">
          <mxGeometry relative="1" as="geometry" />
        </mxCell>
        <mxCell id="HwbPbKse9-UZTt6arCgf-34" value="[JDBC]" style="edgeLabel;html=1;align=center;verticalAlign=middle;resizable=0;points=[];" parent="HwbPbKse9-UZTt6arCgf-33" connectable="0" vertex="1">
          <mxGeometry x="-0.3556" y="-2" relative="1" as="geometry">
            <mxPoint as="offset" />
          </mxGeometry>
        </mxCell>
        <object placeholders="1" c4Name="Хранилище данных" c4Type="Container" c4Technology="Greenplum" c4Description="Единое хранилище данных для всех систем компании" label="&lt;font style=&quot;font-size: 16px&quot;&gt;&lt;b&gt;%c4Name%&lt;/b&gt;&lt;/font&gt;&lt;div&gt;[%c4Type%: %c4Technology%]&lt;/div&gt;&lt;br&gt;&lt;div&gt;&lt;font style=&quot;font-size: 11px&quot;&gt;&lt;font color=&quot;#E6E6E6&quot;&gt;%c4Description%&lt;/font&gt;&lt;/div&gt;" id="HwbPbKse9-UZTt6arCgf-35">
          <mxCell style="rounded=1;whiteSpace=wrap;html=1;fontSize=11;labelBackgroundColor=none;fillColor=#23A2D9;fontColor=#ffffff;align=center;arcSize=10;strokeColor=#0E7DAD;metaEdit=1;resizable=0;points=[[0.25,0,0],[0.5,0,0],[0.75,0,0],[1,0.25,0],[1,0.5,0],[1,0.75,0],[0.75,1,0],[0.5,1,0],[0.25,1,0],[0,0.75,0],[0,0.5,0],[0,0.25,0]];" parent="1" vertex="1">
            <mxGeometry x="605" y="1380" width="240" height="120" as="geometry" />
          </mxCell>
        </object>
        <object placeholders="1" c4Name="DWH Хранилище" c4Type="Container" c4Technology="S3" c4Description="Физическое хранилище данных DWH" label="&lt;font style=&quot;font-size: 16px&quot;&gt;&lt;b&gt;%c4Name%&lt;/b&gt;&lt;/font&gt;&lt;div&gt;[%c4Type%:&amp;nbsp;%c4Technology%]&lt;/div&gt;&lt;br&gt;&lt;div&gt;&lt;font style=&quot;font-size: 11px&quot;&gt;&lt;font color=&quot;#E6E6E6&quot;&gt;%c4Description%&lt;/font&gt;&lt;/div&gt;" id="HwbPbKse9-UZTt6arCgf-36">
          <mxCell style="shape=cylinder3;size=15;whiteSpace=wrap;html=1;boundedLbl=1;rounded=0;labelBackgroundColor=none;fillColor=#23A2D9;fontSize=12;fontColor=#ffffff;align=center;strokeColor=#0E7DAD;metaEdit=1;points=[[0.5,0,0],[1,0.25,0],[1,0.5,0],[1,0.75,0],[0.5,1,0],[0,0.75,0],[0,0.5,0],[0,0.25,0]];resizable=0;" parent="1" vertex="1">
            <mxGeometry x="605" y="1610" width="240" height="120" as="geometry" />
          </mxCell>
        </object>
        <mxCell id="HwbPbKse9-UZTt6arCgf-37" style="edgeStyle=orthogonalEdgeStyle;rounded=0;orthogonalLoop=1;jettySize=auto;html=1;exitX=0.25;exitY=1;exitDx=0;exitDy=0;exitPerimeter=0;entryX=0.5;entryY=0;entryDx=0;entryDy=0;entryPerimeter=0;" parent="1" source="HwbPbKse9-UZTt6arCgf-60" target="HwbPbKse9-UZTt6arCgf-43" edge="1">
          <mxGeometry relative="1" as="geometry">
            <Array as="points">
              <mxPoint x="390" y="510" />
              <mxPoint x="130" y="510" />
            </Array>
          </mxGeometry>
        </mxCell>
        <mxCell id="HwbPbKse9-UZTt6arCgf-38" value="Получить данные по объектам&lt;div&gt;недвижимости&lt;/div&gt;&lt;div&gt;[REST]&lt;/div&gt;" style="edgeLabel;html=1;align=center;verticalAlign=middle;resizable=0;points=[];" parent="HwbPbKse9-UZTt6arCgf-37" connectable="0" vertex="1">
          <mxGeometry x="-0.2933" y="2" relative="1" as="geometry">
            <mxPoint x="-70" y="-2" as="offset" />
          </mxGeometry>
        </mxCell>
        <mxCell id="HwbPbKse9-UZTt6arCgf-39" style="edgeStyle=orthogonalEdgeStyle;rounded=0;orthogonalLoop=1;jettySize=auto;html=1;" parent="1" source="HwbPbKse9-UZTt6arCgf-41" target="HwbPbKse9-UZTt6arCgf-42" edge="1">
          <mxGeometry relative="1" as="geometry" />
        </mxCell>
        <mxCell id="HwbPbKse9-UZTt6arCgf-40" value="[JDBC]" style="edgeLabel;html=1;align=center;verticalAlign=middle;resizable=0;points=[];" parent="HwbPbKse9-UZTt6arCgf-39" connectable="0" vertex="1">
          <mxGeometry x="0.2629" y="4" relative="1" as="geometry">
            <mxPoint as="offset" />
          </mxGeometry>
        </mxCell>
        <object placeholders="1" c4Name="client-mart-app" c4Type="Container" c4Technology="Container: Kotlin, SpringBoot" c4Description="Приложение для:&#xa;- предоставления информации об объектах недвижимости,&#xa;- проведения онлайн-сделок" label="&lt;font style=&quot;font-size: 16px&quot;&gt;&lt;b&gt;%c4Name%&lt;/b&gt;&lt;/font&gt;&lt;div&gt;[%c4Type%: %c4Technology%]&lt;/div&gt;&lt;br&gt;&lt;div&gt;&lt;font style=&quot;font-size: 11px&quot;&gt;&lt;font color=&quot;#E6E6E6&quot;&gt;%c4Description%&lt;/font&gt;&lt;/div&gt;" id="HwbPbKse9-UZTt6arCgf-41">
          <mxCell style="rounded=1;whiteSpace=wrap;html=1;fontSize=11;labelBackgroundColor=none;fillColor=#23A2D9;fontColor=#ffffff;align=center;arcSize=10;strokeColor=#0E7DAD;metaEdit=1;resizable=0;points=[[0.25,0,0],[0.5,0,0],[0.75,0,0],[1,0.25,0],[1,0.5,0],[1,0.75,0],[0.75,1,0],[0.5,1,0],[0.25,1,0],[0,0.75,0],[0,0.5,0],[0,0.25,0]];" parent="1" vertex="1">
            <mxGeometry x="330" y="550" width="240" height="120" as="geometry" />
          </mxCell>
        </object>
        <object placeholders="1" c4Name="client-mart-db" c4Type="Container" c4Technology="PostgreSQL" c4Description="База данных для хранения информации об объектах недвижимости и сделкам по ним" label="&lt;font style=&quot;font-size: 14px&quot;&gt;&lt;b&gt;%c4Name%&lt;/b&gt;&lt;/font&gt;&lt;div&gt;[%c4Type%:&amp;nbsp;%c4Technology%]&lt;/div&gt;&lt;br&gt;&lt;div&gt;&lt;font style=&quot;font-size: 11px&quot;&gt;&lt;font color=&quot;#E6E6E6&quot;&gt;%c4Description%&lt;/font&gt;&lt;/div&gt;" id="HwbPbKse9-UZTt6arCgf-42">
          <mxCell style="shape=cylinder3;size=15;whiteSpace=wrap;html=1;boundedLbl=1;rounded=0;labelBackgroundColor=none;fillColor=#23A2D9;fontSize=12;fontColor=#ffffff;align=center;strokeColor=#0E7DAD;metaEdit=1;points=[[0.5,0,0],[1,0.25,0],[1,0.5,0],[1,0.75,0],[0.5,1,0],[0,0.75,0],[0,0.5,0],[0,0.25,0]];resizable=0;" parent="1" vertex="1">
            <mxGeometry x="330" y="700" width="240" height="120" as="geometry" />
          </mxCell>
        </object>
        <object placeholders="1" c4Name="client-mart-estate-app" c4Type="Container" c4Technology="Container: Kotlin, SpringBoot" c4Description="Приложение для управления информацией об объектах недвижимости" label="&lt;font style=&quot;font-size: 16px&quot;&gt;&lt;b&gt;%c4Name%&lt;/b&gt;&lt;/font&gt;&lt;div&gt;[%c4Type%: %c4Technology%]&lt;/div&gt;&lt;br&gt;&lt;div&gt;&lt;font style=&quot;font-size: 11px&quot;&gt;&lt;font color=&quot;#E6E6E6&quot;&gt;%c4Description%&lt;/font&gt;&lt;/div&gt;" id="HwbPbKse9-UZTt6arCgf-43">
          <mxCell style="rounded=1;whiteSpace=wrap;html=1;fontSize=11;labelBackgroundColor=none;fillColor=#23A2D9;fontColor=#ffffff;align=center;arcSize=10;strokeColor=#0E7DAD;metaEdit=1;resizable=0;points=[[0.25,0,0],[0.5,0,0],[0.75,0,0],[1,0.25,0],[1,0.5,0],[1,0.75,0],[0.75,1,0],[0.5,1,0],[0.25,1,0],[0,0.75,0],[0,0.5,0],[0,0.25,0]];" parent="1" vertex="1">
            <mxGeometry x="10" y="550" width="240" height="120" as="geometry" />
          </mxCell>
        </object>
        <mxCell id="HwbPbKse9-UZTt6arCgf-44" style="edgeStyle=orthogonalEdgeStyle;rounded=0;orthogonalLoop=1;jettySize=auto;html=1;entryX=0;entryY=0.75;entryDx=0;entryDy=0;entryPerimeter=0;exitX=0.5;exitY=1;exitDx=0;exitDy=0;exitPerimeter=0;" parent="1" source="HwbPbKse9-UZTt6arCgf-46" target="HwbPbKse9-UZTt6arCgf-35" edge="1">
          <mxGeometry relative="1" as="geometry">
            <Array as="points">
              <mxPoint x="130" y="1470" />
            </Array>
          </mxGeometry>
        </mxCell>
        <mxCell id="HwbPbKse9-UZTt6arCgf-45" value="&lt;div&gt;Передача сырых данных&lt;/div&gt;[CDC]" style="edgeLabel;html=1;align=center;verticalAlign=middle;resizable=0;points=[];" parent="HwbPbKse9-UZTt6arCgf-44" connectable="0" vertex="1">
          <mxGeometry x="-0.6156" y="2" relative="1" as="geometry">
            <mxPoint y="-49" as="offset" />
          </mxGeometry>
        </mxCell>
        <object placeholders="1" c4Name="client-mart-estate-db" c4Type="Container" c4Technology="PostgreSQL" c4Description="База данных объектов недвижимости" label="&lt;font style=&quot;font-size: 16px&quot;&gt;&lt;b&gt;%c4Name%&lt;/b&gt;&lt;/font&gt;&lt;div&gt;[%c4Type%:&amp;nbsp;%c4Technology%]&lt;/div&gt;&lt;br&gt;&lt;div&gt;&lt;font style=&quot;font-size: 11px&quot;&gt;&lt;font color=&quot;#E6E6E6&quot;&gt;%c4Description%&lt;/font&gt;&lt;/div&gt;" id="HwbPbKse9-UZTt6arCgf-46">
          <mxCell style="shape=cylinder3;size=15;whiteSpace=wrap;html=1;boundedLbl=1;rounded=0;labelBackgroundColor=none;fillColor=#23A2D9;fontSize=12;fontColor=#ffffff;align=center;strokeColor=#0E7DAD;metaEdit=1;points=[[0.5,0,0],[1,0.25,0],[1,0.5,0],[1,0.75,0],[0.5,1,0],[0,0.75,0],[0,0.5,0],[0,0.25,0]];resizable=0;" parent="1" vertex="1">
            <mxGeometry x="10" y="750" width="240" height="120" as="geometry" />
          </mxCell>
        </object>
        <mxCell id="HwbPbKse9-UZTt6arCgf-47" style="edgeStyle=orthogonalEdgeStyle;rounded=0;orthogonalLoop=1;jettySize=auto;html=1;entryX=0.5;entryY=0;entryDx=0;entryDy=0;entryPerimeter=0;" parent="1" source="HwbPbKse9-UZTt6arCgf-43" target="HwbPbKse9-UZTt6arCgf-46" edge="1">
          <mxGeometry relative="1" as="geometry" />
        </mxCell>
        <mxCell id="HwbPbKse9-UZTt6arCgf-48" value="[JDBC]" style="edgeLabel;html=1;align=center;verticalAlign=middle;resizable=0;points=[];" parent="HwbPbKse9-UZTt6arCgf-47" connectable="0" vertex="1">
          <mxGeometry x="-0.3867" y="1" relative="1" as="geometry">
            <mxPoint as="offset" />
          </mxGeometry>
        </mxCell>
        <mxCell id="HwbPbKse9-UZTt6arCgf-49" style="edgeStyle=orthogonalEdgeStyle;rounded=0;orthogonalLoop=1;jettySize=auto;html=1;entryX=0;entryY=0.75;entryDx=0;entryDy=0;entryPerimeter=0;exitX=0.5;exitY=1;exitDx=0;exitDy=0;exitPerimeter=0;" parent="1" source="HwbPbKse9-UZTt6arCgf-9" target="HwbPbKse9-UZTt6arCgf-35" edge="1">
          <mxGeometry relative="1" as="geometry">
            <Array as="points">
              <mxPoint x="450" y="1470" />
            </Array>
          </mxGeometry>
        </mxCell>
        <mxCell id="HwbPbKse9-UZTt6arCgf-50" value="&lt;div&gt;Передача сырых данных&lt;/div&gt;[CDC]" style="edgeLabel;html=1;align=center;verticalAlign=middle;resizable=0;points=[];" parent="HwbPbKse9-UZTt6arCgf-49" connectable="0" vertex="1">
          <mxGeometry x="-0.4022" y="-8" relative="1" as="geometry">
            <mxPoint y="1" as="offset" />
          </mxGeometry>
        </mxCell>
        <mxCell id="HwbPbKse9-UZTt6arCgf-51" style="edgeStyle=orthogonalEdgeStyle;rounded=0;orthogonalLoop=1;jettySize=auto;html=1;entryX=0;entryY=0.5;entryDx=0;entryDy=0;entryPerimeter=0;exitX=1;exitY=0.5;exitDx=0;exitDy=0;exitPerimeter=0;" parent="1" source="HwbPbKse9-UZTt6arCgf-42" target="HwbPbKse9-UZTt6arCgf-35" edge="1">
          <mxGeometry relative="1" as="geometry">
            <mxPoint x="550" y="830" as="sourcePoint" />
            <mxPoint x="705" y="1470" as="targetPoint" />
            <Array as="points">
              <mxPoint x="590" y="760" />
              <mxPoint x="590" y="1440" />
            </Array>
          </mxGeometry>
        </mxCell>
        <mxCell id="HwbPbKse9-UZTt6arCgf-52" value="&lt;div&gt;Передача сырых данных&lt;/div&gt;[CDC]" style="edgeLabel;html=1;align=center;verticalAlign=middle;resizable=0;points=[];" parent="HwbPbKse9-UZTt6arCgf-51" connectable="0" vertex="1">
          <mxGeometry x="0.4614" y="4" relative="1" as="geometry">
            <mxPoint x="-54" y="-422" as="offset" />
          </mxGeometry>
        </mxCell>
        <mxCell id="HwbPbKse9-UZTt6arCgf-53" style="edgeStyle=orthogonalEdgeStyle;rounded=0;orthogonalLoop=1;jettySize=auto;html=1;exitX=0.5;exitY=1;exitDx=0;exitDy=0;exitPerimeter=0;" parent="1" source="HwbPbKse9-UZTt6arCgf-32" edge="1">
          <mxGeometry relative="1" as="geometry">
            <Array as="points">
              <mxPoint x="1290" y="910" />
              <mxPoint x="1110" y="910" />
              <mxPoint x="1110" y="1420" />
            </Array>
            <mxPoint x="845" y="1420" as="targetPoint" />
          </mxGeometry>
        </mxCell>
        <mxCell id="HwbPbKse9-UZTt6arCgf-54" value="&lt;div&gt;Передача сырых данных&lt;/div&gt;[CDC]" style="edgeLabel;html=1;align=center;verticalAlign=middle;resizable=0;points=[];" parent="HwbPbKse9-UZTt6arCgf-53" connectable="0" vertex="1">
          <mxGeometry x="0.1919" y="-2" relative="1" as="geometry">
            <mxPoint y="-1" as="offset" />
          </mxGeometry>
        </mxCell>
        <mxCell id="HwbPbKse9-UZTt6arCgf-55" style="edgeStyle=orthogonalEdgeStyle;rounded=0;orthogonalLoop=1;jettySize=auto;html=1;entryX=1;entryY=0.5;entryDx=0;entryDy=0;entryPerimeter=0;" parent="1" source="HwbPbKse9-UZTt6arCgf-16" target="HwbPbKse9-UZTt6arCgf-35" edge="1">
          <mxGeometry relative="1" as="geometry">
            <Array as="points">
              <mxPoint x="1730" y="1020" />
              <mxPoint x="1227" y="1020" />
              <mxPoint x="1227" y="1440" />
            </Array>
          </mxGeometry>
        </mxCell>
        <mxCell id="HwbPbKse9-UZTt6arCgf-56" value="&lt;div&gt;Передача сырых данных&lt;/div&gt;[CDC]" style="edgeLabel;html=1;align=center;verticalAlign=middle;resizable=0;points=[];" parent="HwbPbKse9-UZTt6arCgf-55" connectable="0" vertex="1">
          <mxGeometry x="-0.3918" y="-2" relative="1" as="geometry">
            <mxPoint y="1" as="offset" />
          </mxGeometry>
        </mxCell>
        <mxCell id="HwbPbKse9-UZTt6arCgf-57" style="edgeStyle=orthogonalEdgeStyle;rounded=0;orthogonalLoop=1;jettySize=auto;html=1;entryX=0.5;entryY=0;entryDx=0;entryDy=0;entryPerimeter=0;" parent="1" target="HwbPbKse9-UZTt6arCgf-75" edge="1">
          <mxGeometry relative="1" as="geometry">
            <mxPoint x="1139.9200000000005" y="370" as="targetPoint" />
            <mxPoint x="1510" y="210" as="sourcePoint" />
          </mxGeometry>
        </mxCell>
        <mxCell id="HwbPbKse9-UZTt6arCgf-58" style="edgeStyle=orthogonalEdgeStyle;rounded=0;orthogonalLoop=1;jettySize=auto;html=1;entryX=0.5;entryY=0;entryDx=0;entryDy=0;entryPerimeter=0;" parent="1" source="HwbPbKse9-UZTt6arCgf-35" target="HwbPbKse9-UZTt6arCgf-36" edge="1">
          <mxGeometry relative="1" as="geometry" />
        </mxCell>
        <mxCell id="HwbPbKse9-UZTt6arCgf-59" style="edgeStyle=orthogonalEdgeStyle;rounded=0;orthogonalLoop=1;jettySize=auto;html=1;" parent="1" source="HwbPbKse9-UZTt6arCgf-60" target="HwbPbKse9-UZTt6arCgf-101" edge="1">
          <mxGeometry relative="1" as="geometry">
            <Array as="points">
              <mxPoint x="480" y="520" />
              <mxPoint x="780" y="520" />
            </Array>
          </mxGeometry>
        </mxCell>
        <object placeholders="1" c4Name="Витрина продаж" c4Type="Container" c4Technology="JavaScript, React" c4Description="Витрина для подбора и бронирования объектов недвижимости" label="&lt;font style=&quot;font-size: 16px&quot;&gt;&lt;b&gt;%c4Name%&lt;/b&gt;&lt;/font&gt;&lt;div&gt;[%c4Type%: %c4Technology%]&lt;/div&gt;&lt;br&gt;&lt;div&gt;&lt;font style=&quot;font-size: 11px&quot;&gt;&lt;font color=&quot;#E6E6E6&quot;&gt;%c4Description%&lt;/font&gt;&lt;/div&gt;" id="HwbPbKse9-UZTt6arCgf-60">
          <mxCell style="rounded=1;whiteSpace=wrap;html=1;fontSize=11;labelBackgroundColor=none;fillColor=#23A2D9;fontColor=#ffffff;align=center;arcSize=10;strokeColor=#0E7DAD;metaEdit=1;resizable=0;points=[[0.25,0,0],[0.5,0,0],[0.75,0,0],[1,0.25,0],[1,0.5,0],[1,0.75,0],[0.75,1,0],[0.5,1,0],[0.25,1,0],[0,0.75,0],[0,0.5,0],[0,0.25,0]];" parent="1" vertex="1">
            <mxGeometry x="330" y="370" width="240" height="120" as="geometry" />
          </mxCell>
        </object>
        <object placeholders="1" c4Name="PropDevelopment" c4Type="SystemScopeBoundary" c4Application="Software System" label="&lt;font style=&quot;font-size: 16px&quot;&gt;&lt;b&gt;&lt;div style=&quot;text-align: left&quot;&gt;%c4Name%&lt;/div&gt;&lt;/b&gt;&lt;/font&gt;&lt;div style=&quot;text-align: left&quot;&gt;[%c4Application%]&lt;/div&gt;" id="HwbPbKse9-UZTt6arCgf-61">
          <mxCell style="rounded=1;fontSize=11;whiteSpace=wrap;html=1;dashed=1;arcSize=20;fillColor=none;strokeColor=#666666;fontColor=#333333;labelBackgroundColor=none;align=left;verticalAlign=bottom;labelBorderColor=none;spacingTop=0;spacing=10;dashPattern=8 4;metaEdit=1;rotatable=0;perimeter=rectanglePerimeter;noLabel=0;labelPadding=0;allowArrows=0;connectable=0;expand=0;recursiveResize=0;editable=1;pointerEvents=0;absoluteArcSize=1;points=[[0.25,0,0],[0.5,0,0],[0.75,0,0],[1,0.25,0],[1,0.5,0],[1,0.75,0],[0.75,1,0],[0.5,1,0],[0.25,1,0],[0,0.75,0],[0,0.5,0],[0,0.25,0]];" parent="1" vertex="1">
            <mxGeometry x="-420" y="340" width="2850" height="1860" as="geometry" />
          </mxCell>
        </object>
        <object placeholders="1" c4Name="Active Directory" c4Type="Container" c4Technology="MS Active directory" c4Description="Служба каталогов, которая обслуживает финансовые сервисы" label="&lt;font style=&quot;font-size: 16px&quot;&gt;&lt;b&gt;%c4Name%&lt;/b&gt;&lt;/font&gt;&lt;div&gt;[%c4Type%: %c4Technology%]&lt;/div&gt;&lt;br&gt;&lt;div&gt;&lt;font style=&quot;font-size: 11px&quot;&gt;&lt;font color=&quot;#E6E6E6&quot;&gt;%c4Description%&lt;/font&gt;&lt;/div&gt;" id="HwbPbKse9-UZTt6arCgf-62">
          <mxCell style="rounded=1;whiteSpace=wrap;html=1;fontSize=11;labelBackgroundColor=none;fillColor=#23A2D9;fontColor=#ffffff;align=center;arcSize=10;strokeColor=#0E7DAD;metaEdit=1;resizable=0;points=[[0.25,0,0],[0.5,0,0],[0.75,0,0],[1,0.25,0],[1,0.5,0],[1,0.75,0],[0.75,1,0],[0.5,1,0],[0.25,1,0],[0,0.75,0],[0,0.5,0],[0,0.25,0]];" parent="1" vertex="1">
            <mxGeometry x="-320" y="1239" width="240" height="120" as="geometry" />
          </mxCell>
        </object>
        <object placeholders="1" c4Name="Active Directory" c4Type="Container" c4Technology="MS Active directory" c4Description="Служба каталогов, которая обслуживает прикладные бизнес-системы и системы обработки данных" label="&lt;font style=&quot;font-size: 16px&quot;&gt;&lt;b&gt;%c4Name%&lt;/b&gt;&lt;/font&gt;&lt;div&gt;[%c4Type%: %c4Technology%]&lt;/div&gt;&lt;br&gt;&lt;div&gt;&lt;font style=&quot;font-size: 11px&quot;&gt;&lt;font color=&quot;#E6E6E6&quot;&gt;%c4Description%&lt;/font&gt;&lt;/div&gt;" id="HwbPbKse9-UZTt6arCgf-63">
          <mxCell style="rounded=1;whiteSpace=wrap;html=1;fontSize=11;labelBackgroundColor=none;fillColor=#23A2D9;fontColor=#ffffff;align=center;arcSize=10;strokeColor=#0E7DAD;metaEdit=1;resizable=0;points=[[0.25,0,0],[0.5,0,0],[0.75,0,0],[1,0.25,0],[1,0.5,0],[1,0.75,0],[0.75,1,0],[0.5,1,0],[0.25,1,0],[0,0.75,0],[0,0.5,0],[0,0.25,0]];" parent="1" vertex="1">
            <mxGeometry x="30" y="1920" width="240" height="120" as="geometry" />
          </mxCell>
        </object>
        <mxCell id="HwbPbKse9-UZTt6arCgf-64" style="edgeStyle=orthogonalEdgeStyle;rounded=0;orthogonalLoop=1;jettySize=auto;html=1;" parent="1" source="HwbPbKse9-UZTt6arCgf-65" target="HwbPbKse9-UZTt6arCgf-81" edge="1">
          <mxGeometry relative="1" as="geometry" />
        </mxCell>
        <object placeholders="1" c4Name="Бухгалтер" c4Type="Person" c4Description="Ведёт бухгалтерский учёт" label="&lt;font style=&quot;font-size: 16px&quot;&gt;&lt;b&gt;%c4Name%&lt;/b&gt;&lt;/font&gt;&lt;div&gt;[%c4Type%]&lt;/div&gt;&lt;br&gt;&lt;div&gt;&lt;font style=&quot;font-size: 11px&quot;&gt;&lt;font color=&quot;#cccccc&quot;&gt;%c4Description%&lt;/font&gt;&lt;/div&gt;" id="HwbPbKse9-UZTt6arCgf-65">
          <mxCell style="html=1;fontSize=11;dashed=0;whiteSpace=wrap;fillColor=#083F75;strokeColor=#06315C;fontColor=#ffffff;shape=mxgraph.c4.person2;align=center;metaEdit=1;points=[[0.5,0,0],[1,0.5,0],[1,0.75,0],[0.75,1,0],[0.5,1,0],[0.25,1,0],[0,0.75,0],[0,0.5,0]];resizable=0;" parent="1" vertex="1">
            <mxGeometry x="-870" y="1590" width="200" height="180" as="geometry" />
          </mxCell>
        </object>
        <object placeholders="1" c4Name="Менеджер" c4Type="Person" c4Description="Работает с клиентами и объектами недвижимости, администрирует онлайн-сделки" label="&lt;font style=&quot;font-size: 16px&quot;&gt;&lt;b&gt;%c4Name%&lt;/b&gt;&lt;/font&gt;&lt;div&gt;[%c4Type%]&lt;/div&gt;&lt;br&gt;&lt;div&gt;&lt;font style=&quot;font-size: 11px&quot;&gt;&lt;font color=&quot;#cccccc&quot;&gt;%c4Description%&lt;/font&gt;&lt;/div&gt;" id="HwbPbKse9-UZTt6arCgf-66">
          <mxCell style="html=1;fontSize=11;dashed=0;whiteSpace=wrap;fillColor=#083F75;strokeColor=#06315C;fontColor=#ffffff;shape=mxgraph.c4.person2;align=center;metaEdit=1;points=[[0.5,0,0],[1,0.5,0],[1,0.75,0],[0.75,1,0],[0.5,1,0],[0.25,1,0],[0,0.75,0],[0,0.5,0]];resizable=0;" parent="1" vertex="1">
            <mxGeometry x="-870" y="790" width="200" height="180" as="geometry" />
          </mxCell>
        </object>
        <object placeholders="1" c4Name="auth-service-1" c4Type="Container" c4Technology="Keycloak" c4Description="Сервис аутентификации покупателей" label="&lt;font style=&quot;font-size: 16px&quot;&gt;&lt;b&gt;%c4Name%&lt;/b&gt;&lt;/font&gt;&lt;div&gt;[%c4Type%: %c4Technology%]&lt;/div&gt;&lt;br&gt;&lt;div&gt;&lt;font style=&quot;font-size: 11px&quot;&gt;&lt;font color=&quot;#E6E6E6&quot;&gt;%c4Description%&lt;/font&gt;&lt;/div&gt;" id="HwbPbKse9-UZTt6arCgf-67">
          <mxCell style="rounded=1;whiteSpace=wrap;html=1;fontSize=11;labelBackgroundColor=none;fillColor=#23A2D9;fontColor=#ffffff;align=center;arcSize=10;strokeColor=#0E7DAD;metaEdit=1;resizable=0;points=[[0.25,0,0],[0.5,0,0],[0.75,0,0],[1,0.25,0],[1,0.5,0],[1,0.75,0],[0.75,1,0],[0.5,1,0],[0.25,1,0],[0,0.75,0],[0,0.5,0],[0,0.25,0]];" parent="1" vertex="1">
            <mxGeometry x="910" y="510" width="240" height="120" as="geometry" />
          </mxCell>
        </object>
        <mxCell id="HwbPbKse9-UZTt6arCgf-68" style="edgeStyle=orthogonalEdgeStyle;rounded=0;orthogonalLoop=1;jettySize=auto;html=1;entryX=0.5;entryY=0;entryDx=0;entryDy=0;entryPerimeter=0;" parent="1" source="HwbPbKse9-UZTt6arCgf-60" target="HwbPbKse9-UZTt6arCgf-67" edge="1">
          <mxGeometry relative="1" as="geometry">
            <mxPoint x="1160" y="565" as="targetPoint" />
            <Array as="points">
              <mxPoint x="1030" y="460" />
            </Array>
          </mxGeometry>
        </mxCell>
        <mxCell id="HwbPbKse9-UZTt6arCgf-69" value="Регистрация&lt;div&gt;Аутентификация&lt;/div&gt;&lt;div&gt;[REST]&lt;/div&gt;" style="edgeLabel;html=1;align=center;verticalAlign=middle;resizable=0;points=[];" parent="HwbPbKse9-UZTt6arCgf-68" connectable="0" vertex="1">
          <mxGeometry x="0.2782" relative="1" as="geometry">
            <mxPoint x="134" y="-30" as="offset" />
          </mxGeometry>
        </mxCell>
        <object placeholders="1" c4Name="auth-db-1" c4Type="Container" c4Technology="PostgreSQL" c4Description="База данных сервиса аутентификации покупателей" label="&lt;font style=&quot;font-size: 16px&quot;&gt;&lt;b&gt;%c4Name%&lt;/b&gt;&lt;/font&gt;&lt;div&gt;[%c4Type%:&amp;nbsp;%c4Technology%]&lt;/div&gt;&lt;br&gt;&lt;div&gt;&lt;font style=&quot;font-size: 11px&quot;&gt;&lt;font color=&quot;#E6E6E6&quot;&gt;%c4Description%&lt;/font&gt;&lt;/div&gt;" id="HwbPbKse9-UZTt6arCgf-70">
          <mxCell style="shape=cylinder3;size=15;whiteSpace=wrap;html=1;boundedLbl=1;rounded=0;labelBackgroundColor=none;fillColor=#23A2D9;fontSize=12;fontColor=#ffffff;align=center;strokeColor=#0E7DAD;metaEdit=1;points=[[0.5,0,0],[1,0.25,0],[1,0.5,0],[1,0.75,0],[0.5,1,0],[0,0.75,0],[0,0.5,0],[0,0.25,0]];resizable=0;" parent="1" vertex="1">
            <mxGeometry x="910" y="680" width="240" height="120" as="geometry" />
          </mxCell>
        </object>
        <mxCell id="HwbPbKse9-UZTt6arCgf-71" style="edgeStyle=orthogonalEdgeStyle;rounded=0;orthogonalLoop=1;jettySize=auto;html=1;entryX=0.5;entryY=0;entryDx=0;entryDy=0;entryPerimeter=0;" parent="1" source="HwbPbKse9-UZTt6arCgf-67" target="HwbPbKse9-UZTt6arCgf-70" edge="1">
          <mxGeometry relative="1" as="geometry" />
        </mxCell>
        <mxCell id="HwbPbKse9-UZTt6arCgf-72" style="edgeStyle=orthogonalEdgeStyle;rounded=0;orthogonalLoop=1;jettySize=auto;html=1;exitX=0.005;exitY=0.33;exitDx=0;exitDy=0;exitPerimeter=0;entryX=0.5;entryY=0;entryDx=0;entryDy=0;entryPerimeter=0;" parent="1" source="HwbPbKse9-UZTt6arCgf-75" target="HwbPbKse9-UZTt6arCgf-67" edge="1">
          <mxGeometry relative="1" as="geometry">
            <mxPoint x="1160" y="535" as="targetPoint" />
            <Array as="points">
              <mxPoint x="1390" y="460" />
              <mxPoint x="1040" y="460" />
            </Array>
          </mxGeometry>
        </mxCell>
        <mxCell id="HwbPbKse9-UZTt6arCgf-73" style="edgeStyle=orthogonalEdgeStyle;rounded=0;orthogonalLoop=1;jettySize=auto;html=1;" parent="1" source="HwbPbKse9-UZTt6arCgf-75" target="HwbPbKse9-UZTt6arCgf-15" edge="1">
          <mxGeometry relative="1" as="geometry">
            <Array as="points">
              <mxPoint x="1510" y="560" />
              <mxPoint x="1730" y="560" />
            </Array>
          </mxGeometry>
        </mxCell>
        <mxCell id="HwbPbKse9-UZTt6arCgf-74" value="[REST]" style="edgeLabel;html=1;align=center;verticalAlign=middle;resizable=0;points=[];" parent="HwbPbKse9-UZTt6arCgf-73" connectable="0" vertex="1">
          <mxGeometry x="-0.3582" y="2" relative="1" as="geometry">
            <mxPoint x="1" as="offset" />
          </mxGeometry>
        </mxCell>
        <mxCell id="HwbPbKse9-UZTt6arCgf-133" style="edgeStyle=orthogonalEdgeStyle;rounded=0;orthogonalLoop=1;jettySize=auto;html=1;" parent="1" source="HwbPbKse9-UZTt6arCgf-75" target="HwbPbKse9-UZTt6arCgf-109" edge="1">
          <mxGeometry relative="1" as="geometry" />
        </mxCell>
        <mxCell id="HwbPbKse9-UZTt6arCgf-134" style="edgeStyle=orthogonalEdgeStyle;rounded=0;orthogonalLoop=1;jettySize=auto;html=1;" parent="1" source="HwbPbKse9-UZTt6arCgf-75" target="HwbPbKse9-UZTt6arCgf-110" edge="1">
          <mxGeometry relative="1" as="geometry" />
        </mxCell>
        <object placeholders="1" c4Name="Витрина сервисов для собственников" c4Type="Container" c4Technology="Mobile app(iOS, Android)" c4Description="Мобильные приложения для собственников" label="&lt;font style=&quot;font-size: 16px&quot;&gt;&lt;b&gt;%c4Name%&lt;/b&gt;&lt;/font&gt;&lt;div&gt;[%c4Type%: %c4Technology%]&lt;/div&gt;&lt;br&gt;&lt;div&gt;&lt;font style=&quot;font-size: 11px&quot;&gt;&lt;font color=&quot;#E6E6E6&quot;&gt;%c4Description%&lt;/font&gt;&lt;/div&gt;" id="HwbPbKse9-UZTt6arCgf-75">
          <mxCell style="rounded=1;whiteSpace=wrap;html=1;fontSize=11;labelBackgroundColor=none;fillColor=#23A2D9;fontColor=#ffffff;align=center;arcSize=10;strokeColor=#0E7DAD;metaEdit=1;resizable=0;points=[[0.25,0,0],[0.5,0,0],[0.75,0,0],[1,0.25,0],[1,0.5,0],[1,0.75,0],[0.75,1,0],[0.5,1,0],[0.25,1,0],[0,0.75,0],[0,0.5,0],[0,0.25,0]];" parent="1" vertex="1">
            <mxGeometry x="1390" y="420" width="240" height="120" as="geometry" />
          </mxCell>
        </object>
        <object placeholders="1" c4Name="auth-service-1" c4Type="Container" c4Technology="Keycloak" c4Description="Сервис аутентификации покупателей." label="&lt;font style=&quot;font-size: 16px&quot;&gt;&lt;b&gt;%c4Name%&lt;/b&gt;&lt;/font&gt;&lt;div&gt;[%c4Type%: %c4Technology%]&lt;/div&gt;&lt;br&gt;&lt;div&gt;&lt;font style=&quot;font-size: 11px&quot;&gt;&lt;font color=&quot;#E6E6E6&quot;&gt;%c4Description%&lt;/font&gt;&lt;/div&gt;" id="HwbPbKse9-UZTt6arCgf-76">
          <mxCell style="rounded=1;whiteSpace=wrap;html=1;fontSize=11;labelBackgroundColor=none;fillColor=#23A2D9;fontColor=#ffffff;align=center;arcSize=10;strokeColor=#0E7DAD;metaEdit=1;resizable=0;points=[[0.25,0,0],[0.5,0,0],[0.75,0,0],[1,0.25,0],[1,0.5,0],[1,0.75,0],[0.75,1,0],[0.5,1,0],[0.25,1,0],[0,0.75,0],[0,0.5,0],[0,0.25,0]];" parent="1" vertex="1">
            <mxGeometry x="-300" y="1620" width="240" height="120" as="geometry" />
          </mxCell>
        </object>
        <object placeholders="1" c4Name="auth-db-1" c4Type="Container" c4Technology="PostgreSQL" c4Description="База данных сервиса аутентификации покупателей" label="&lt;font style=&quot;font-size: 16px&quot;&gt;&lt;b&gt;%c4Name%&lt;/b&gt;&lt;/font&gt;&lt;div&gt;[%c4Type%:&amp;nbsp;%c4Technology%]&lt;/div&gt;&lt;br&gt;&lt;div&gt;&lt;font style=&quot;font-size: 11px&quot;&gt;&lt;font color=&quot;#E6E6E6&quot;&gt;%c4Description%&lt;/font&gt;&lt;/div&gt;" id="HwbPbKse9-UZTt6arCgf-77">
          <mxCell style="shape=cylinder3;size=15;whiteSpace=wrap;html=1;boundedLbl=1;rounded=0;labelBackgroundColor=none;fillColor=#23A2D9;fontSize=12;fontColor=#ffffff;align=center;strokeColor=#0E7DAD;metaEdit=1;points=[[0.5,0,0],[1,0.25,0],[1,0.5,0],[1,0.75,0],[0.5,1,0],[0,0.75,0],[0,0.5,0],[0,0.25,0]];resizable=0;" parent="1" vertex="1">
            <mxGeometry x="-300" y="1810" width="240" height="120" as="geometry" />
          </mxCell>
        </object>
        <mxCell id="HwbPbKse9-UZTt6arCgf-78" style="edgeStyle=orthogonalEdgeStyle;rounded=0;orthogonalLoop=1;jettySize=auto;html=1;entryX=0.5;entryY=0;entryDx=0;entryDy=0;entryPerimeter=0;" parent="1" source="HwbPbKse9-UZTt6arCgf-76" target="HwbPbKse9-UZTt6arCgf-77" edge="1">
          <mxGeometry relative="1" as="geometry" />
        </mxCell>
        <mxCell id="HwbPbKse9-UZTt6arCgf-79" style="edgeStyle=orthogonalEdgeStyle;rounded=0;orthogonalLoop=1;jettySize=auto;html=1;" parent="1" source="HwbPbKse9-UZTt6arCgf-81" target="HwbPbKse9-UZTt6arCgf-63" edge="1">
          <mxGeometry relative="1" as="geometry" />
        </mxCell>
        <mxCell id="HwbPbKse9-UZTt6arCgf-80" value="Аутентификация" style="edgeLabel;html=1;align=center;verticalAlign=middle;resizable=0;points=[];" parent="HwbPbKse9-UZTt6arCgf-79" connectable="0" vertex="1">
          <mxGeometry x="0.2659" relative="1" as="geometry">
            <mxPoint as="offset" />
          </mxGeometry>
        </mxCell>
        <object placeholders="1" c4Name="accountant-service-1" c4Type="Container" c4Technology="Keycloak" c4Description="Система бухгалтерского учёта" label="&lt;font style=&quot;font-size: 16px&quot;&gt;&lt;b&gt;%c4Name%&lt;/b&gt;&lt;/font&gt;&lt;div&gt;[%c4Type%: %c4Technology%]&lt;/div&gt;&lt;br&gt;&lt;div&gt;&lt;font style=&quot;font-size: 11px&quot;&gt;&lt;font color=&quot;#E6E6E6&quot;&gt;%c4Description%&lt;/font&gt;&lt;/div&gt;" id="HwbPbKse9-UZTt6arCgf-81">
          <mxCell style="rounded=1;whiteSpace=wrap;html=1;fontSize=11;labelBackgroundColor=none;fillColor=#23A2D9;fontColor=#ffffff;align=center;arcSize=10;strokeColor=#0E7DAD;metaEdit=1;resizable=0;points=[[0.25,0,0],[0.5,0,0],[0.75,0,0],[1,0.25,0],[1,0.5,0],[1,0.75,0],[0.75,1,0],[0.5,1,0],[0.25,1,0],[0,0.75,0],[0,0.5,0],[0,0.25,0]];" parent="1" vertex="1">
            <mxGeometry x="-300" y="1620" width="240" height="120" as="geometry" />
          </mxCell>
        </object>
        <object placeholders="1" c4Name="auth-db-1" c4Type="Container" c4Technology="PostgreSQL" c4Description="База данных сервиса аутентификации покупателей" label="&lt;font style=&quot;font-size: 16px&quot;&gt;&lt;b&gt;%c4Name%&lt;/b&gt;&lt;/font&gt;&lt;div&gt;[%c4Type%:&amp;nbsp;%c4Technology%]&lt;/div&gt;&lt;br&gt;&lt;div&gt;&lt;font style=&quot;font-size: 11px&quot;&gt;&lt;font color=&quot;#E6E6E6&quot;&gt;%c4Description%&lt;/font&gt;&lt;/div&gt;" id="HwbPbKse9-UZTt6arCgf-82">
          <mxCell style="shape=cylinder3;size=15;whiteSpace=wrap;html=1;boundedLbl=1;rounded=0;labelBackgroundColor=none;fillColor=#23A2D9;fontSize=12;fontColor=#ffffff;align=center;strokeColor=#0E7DAD;metaEdit=1;points=[[0.5,0,0],[1,0.25,0],[1,0.5,0],[1,0.75,0],[0.5,1,0],[0,0.75,0],[0,0.5,0],[0,0.25,0]];resizable=0;" parent="1" vertex="1">
            <mxGeometry x="-300" y="1810" width="240" height="120" as="geometry" />
          </mxCell>
        </object>
        <mxCell id="HwbPbKse9-UZTt6arCgf-83" style="edgeStyle=orthogonalEdgeStyle;rounded=0;orthogonalLoop=1;jettySize=auto;html=1;exitX=1;exitY=0.75;exitDx=0;exitDy=0;exitPerimeter=0;" parent="1" source="HwbPbKse9-UZTt6arCgf-66" edge="1">
          <mxGeometry relative="1" as="geometry">
            <mxPoint x="-420" y="930" as="targetPoint" />
            <Array as="points">
              <mxPoint x="-670" y="930" />
            </Array>
          </mxGeometry>
        </mxCell>
        <mxCell id="HwbPbKse9-UZTt6arCgf-84" style="edgeStyle=orthogonalEdgeStyle;rounded=0;orthogonalLoop=1;jettySize=auto;html=1;entryX=1;entryY=0.5;entryDx=0;entryDy=0;entryPerimeter=0;" parent="1" source="HwbPbKse9-UZTt6arCgf-35" target="HwbPbKse9-UZTt6arCgf-62" edge="1">
          <mxGeometry relative="1" as="geometry">
            <Array as="points">
              <mxPoint x="725" y="1520" />
              <mxPoint x="-10" y="1520" />
              <mxPoint x="-10" y="1299" />
            </Array>
          </mxGeometry>
        </mxCell>
        <mxCell id="HwbPbKse9-UZTt6arCgf-85" value="Аутентификация&amp;nbsp;&lt;div&gt;бизнес-аналитика&lt;/div&gt;" style="edgeLabel;html=1;align=center;verticalAlign=middle;resizable=0;points=[];" parent="HwbPbKse9-UZTt6arCgf-84" connectable="0" vertex="1">
          <mxGeometry x="0.1545" y="-2" relative="1" as="geometry">
            <mxPoint x="1" as="offset" />
          </mxGeometry>
        </mxCell>
        <mxCell id="HwbPbKse9-UZTt6arCgf-86" style="edgeStyle=orthogonalEdgeStyle;rounded=0;orthogonalLoop=1;jettySize=auto;html=1;exitX=1;exitY=0.75;exitDx=0;exitDy=0;exitPerimeter=0;" parent="1" source="HwbPbKse9-UZTt6arCgf-87" edge="1">
          <mxGeometry relative="1" as="geometry">
            <mxPoint x="-420" y="1210" as="targetPoint" />
          </mxGeometry>
        </mxCell>
        <object placeholders="1" c4Name="Бизнес-аналитик" c4Type="Person" c4Description="Оптимизирует процессы и развивает прикладные бизнес-системы. Администрирует системы" label="&lt;font style=&quot;font-size: 16px&quot;&gt;&lt;b&gt;%c4Name%&lt;/b&gt;&lt;/font&gt;&lt;div&gt;[%c4Type%]&lt;/div&gt;&lt;br&gt;&lt;div&gt;&lt;font style=&quot;font-size: 11px&quot;&gt;&lt;font color=&quot;#cccccc&quot;&gt;%c4Description%&lt;/font&gt;&lt;/div&gt;" id="HwbPbKse9-UZTt6arCgf-87">
          <mxCell style="html=1;fontSize=11;dashed=0;whiteSpace=wrap;fillColor=#083F75;strokeColor=#06315C;fontColor=#ffffff;shape=mxgraph.c4.person2;align=center;metaEdit=1;points=[[0.5,0,0],[1,0.5,0],[1,0.75,0],[0.75,1,0],[0.5,1,0],[0.25,1,0],[0,0.75,0],[0,0.5,0]];resizable=0;" parent="1" vertex="1">
            <mxGeometry x="-870" y="1075" width="200" height="180" as="geometry" />
          </mxCell>
        </object>
        <mxCell id="HwbPbKse9-UZTt6arCgf-88" value="" style="edgeStyle=orthogonalEdgeStyle;rounded=0;orthogonalLoop=1;jettySize=auto;html=1;" parent="1" target="HwbPbKse9-UZTt6arCgf-60" edge="1">
          <mxGeometry relative="1" as="geometry">
            <mxPoint x="450" y="220" as="sourcePoint" />
            <mxPoint x="450" y="370" as="targetPoint" />
          </mxGeometry>
        </mxCell>
        <mxCell id="HwbPbKse9-UZTt6arCgf-89" value="" style="image;html=1;image=img/lib/clip_art/networking/Firewall_02_128x128.png" parent="1" vertex="1">
          <mxGeometry x="410" y="250" width="80" height="80" as="geometry" />
        </mxCell>
        <mxCell id="HwbPbKse9-UZTt6arCgf-90" value="" style="image;html=1;image=img/lib/clip_art/networking/Firewall_02_128x128.png" parent="1" vertex="1">
          <mxGeometry x="1470" y="250" width="80" height="80" as="geometry" />
        </mxCell>
        <mxCell id="HwbPbKse9-UZTt6arCgf-91" value="Firewall" style="text;html=1;align=center;verticalAlign=middle;whiteSpace=wrap;rounded=0;" parent="1" vertex="1">
          <mxGeometry x="480" y="275" width="60" height="30" as="geometry" />
        </mxCell>
        <mxCell id="HwbPbKse9-UZTt6arCgf-92" value="Firewall" style="text;html=1;align=center;verticalAlign=middle;whiteSpace=wrap;rounded=0;" parent="1" vertex="1">
          <mxGeometry x="1560" y="275" width="60" height="30" as="geometry" />
        </mxCell>
        <mxCell id="HwbPbKse9-UZTt6arCgf-93" value="&lt;b&gt;Группа сервисов&amp;nbsp;&lt;/b&gt;&lt;b style=&quot;background-color: initial;&quot;&gt;ЖКУ&lt;/b&gt;" style="text;html=1;align=center;verticalAlign=middle;whiteSpace=wrap;rounded=0;" parent="1" vertex="1">
          <mxGeometry x="1730" y="400" width="90" height="30" as="geometry" />
        </mxCell>
        <mxCell id="HwbPbKse9-UZTt6arCgf-94" value="&lt;b&gt;Группа сервисов для клиентов&lt;/b&gt;" style="text;html=1;align=center;verticalAlign=middle;whiteSpace=wrap;rounded=0;" parent="1" vertex="1">
          <mxGeometry x="660" y="350" width="100" height="105" as="geometry" />
        </mxCell>
        <object placeholders="1" c4Name="Аналитик BI" c4Type="Person" c4Description="Анализирует данные и готовит отчётность" label="&lt;font style=&quot;font-size: 16px&quot;&gt;&lt;b&gt;%c4Name%&lt;/b&gt;&lt;/font&gt;&lt;div&gt;[%c4Type%]&lt;/div&gt;&lt;br&gt;&lt;div&gt;&lt;font style=&quot;font-size: 11px&quot;&gt;&lt;font color=&quot;#cccccc&quot;&gt;%c4Description%&lt;/font&gt;&lt;/div&gt;" id="HwbPbKse9-UZTt6arCgf-95">
          <mxCell style="html=1;fontSize=11;dashed=0;whiteSpace=wrap;fillColor=#083F75;strokeColor=#06315C;fontColor=#ffffff;shape=mxgraph.c4.person2;align=center;metaEdit=1;points=[[0.5,0,0],[1,0.5,0],[1,0.75,0],[0.75,1,0],[0.5,1,0],[0.25,1,0],[0,0.75,0],[0,0.5,0]];resizable=0;" parent="1" vertex="1">
            <mxGeometry x="2470" y="1400" width="200" height="180" as="geometry" />
          </mxCell>
        </object>
        <mxCell id="HwbPbKse9-UZTt6arCgf-96" style="edgeStyle=orthogonalEdgeStyle;rounded=0;orthogonalLoop=1;jettySize=auto;html=1;entryX=0.976;entryY=0.936;entryDx=0;entryDy=0;entryPerimeter=0;" parent="1" source="HwbPbKse9-UZTt6arCgf-95" target="HwbPbKse9-UZTt6arCgf-35" edge="1">
          <mxGeometry relative="1" as="geometry">
            <Array as="points">
              <mxPoint x="1050" y="1492" />
            </Array>
          </mxGeometry>
        </mxCell>
        <object placeholders="1" c4Name="Поставщик ресурсов ЖКХ" c4Type="Software System" c4Description="" label="&lt;font style=&quot;font-size: 16px&quot;&gt;&lt;b&gt;%c4Name%&lt;/b&gt;&lt;/font&gt;&lt;div&gt;[%c4Type%]&lt;/div&gt;&lt;br&gt;&lt;div&gt;&lt;font style=&quot;font-size: 11px&quot;&gt;&lt;font color=&quot;#cccccc&quot;&gt;%c4Description%&lt;/font&gt;&lt;/div&gt;" id="HwbPbKse9-UZTt6arCgf-97">
          <mxCell style="rounded=1;whiteSpace=wrap;html=1;labelBackgroundColor=none;fillColor=#8C8496;fontColor=#ffffff;align=center;arcSize=10;strokeColor=#736782;metaEdit=1;resizable=0;points=[[0.25,0,0],[0.5,0,0],[0.75,0,0],[1,0.25,0],[1,0.5,0],[1,0.75,0],[0.75,1,0],[0.5,1,0],[0.25,1,0],[0,0.75,0],[0,0.5,0],[0,0.25,0]];" parent="1" vertex="1">
            <mxGeometry x="2772" y="470" width="240" height="120" as="geometry" />
          </mxCell>
        </object>
        <mxCell id="HwbPbKse9-UZTt6arCgf-98" style="edgeStyle=orthogonalEdgeStyle;rounded=0;orthogonalLoop=1;jettySize=auto;html=1;entryX=1;entryY=0.5;entryDx=0;entryDy=0;entryPerimeter=0;exitX=1;exitY=0.5;exitDx=0;exitDy=0;exitPerimeter=0;" parent="1" source="HwbPbKse9-UZTt6arCgf-12" target="HwbPbKse9-UZTt6arCgf-41" edge="1">
          <mxGeometry relative="1" as="geometry">
            <mxPoint x="620" y="890" as="sourcePoint" />
            <mxPoint x="740" y="620" as="targetPoint" />
            <Array as="points">
              <mxPoint x="610" y="940" />
              <mxPoint x="610" y="610" />
            </Array>
          </mxGeometry>
        </mxCell>
        <mxCell id="HwbPbKse9-UZTt6arCgf-99" value="Публикация&amp;nbsp;&lt;div&gt;каталога объектов&lt;div&gt;[Kafka]&lt;/div&gt;&lt;/div&gt;" style="edgeLabel;html=1;align=center;verticalAlign=middle;resizable=0;points=[];" parent="HwbPbKse9-UZTt6arCgf-98" connectable="0" vertex="1">
          <mxGeometry x="0.1891" y="1" relative="1" as="geometry">
            <mxPoint x="21" y="-41" as="offset" />
          </mxGeometry>
        </mxCell>
        <mxCell id="HwbPbKse9-UZTt6arCgf-100" style="edgeStyle=orthogonalEdgeStyle;rounded=0;orthogonalLoop=1;jettySize=auto;html=1;" parent="1" source="HwbPbKse9-UZTt6arCgf-101" target="HwbPbKse9-UZTt6arCgf-102" edge="1">
          <mxGeometry relative="1" as="geometry" />
        </mxCell>
        <object placeholders="1" c4Name="client-tour-app" c4Type="Container" c4Technology="Container: Kotlin, SpringBoot" c4Description="Приложение для проведения 3D-тура по объекту недвижимости (онлайн-тур)" label="&lt;font style=&quot;font-size: 16px&quot;&gt;&lt;b&gt;%c4Name%&lt;/b&gt;&lt;/font&gt;&lt;div&gt;[%c4Type%: %c4Technology%]&lt;/div&gt;&lt;br&gt;&lt;div&gt;&lt;font style=&quot;font-size: 11px&quot;&gt;&lt;font color=&quot;#E6E6E6&quot;&gt;%c4Description%&lt;/font&gt;&lt;/div&gt;" id="HwbPbKse9-UZTt6arCgf-101">
          <mxCell style="rounded=1;whiteSpace=wrap;html=1;fontSize=11;labelBackgroundColor=none;fillColor=#23A2D9;fontColor=#ffffff;align=center;arcSize=10;strokeColor=#0E7DAD;metaEdit=1;resizable=0;points=[[0.25,0,0],[0.5,0,0],[0.75,0,0],[1,0.25,0],[1,0.5,0],[1,0.75,0],[0.75,1,0],[0.5,1,0],[0.25,1,0],[0,0.75,0],[0,0.5,0],[0,0.25,0]];" parent="1" vertex="1">
            <mxGeometry x="650" y="550" width="240" height="120" as="geometry" />
          </mxCell>
        </object>
        <object placeholders="1" c4Name="client-tour-db" c4Type="Container" c4Technology="PostgreSQL" c4Description="База данных проведения онлайн-тура" label="&lt;font style=&quot;font-size: 14px&quot;&gt;&lt;b&gt;%c4Name%&lt;/b&gt;&lt;/font&gt;&lt;div&gt;[%c4Type%:&amp;nbsp;%c4Technology%]&lt;/div&gt;&lt;br&gt;&lt;div&gt;&lt;font style=&quot;font-size: 11px&quot;&gt;&lt;font color=&quot;#E6E6E6&quot;&gt;%c4Description%&lt;/font&gt;&lt;/div&gt;" id="HwbPbKse9-UZTt6arCgf-102">
          <mxCell style="shape=cylinder3;size=15;whiteSpace=wrap;html=1;boundedLbl=1;rounded=0;labelBackgroundColor=none;fillColor=#23A2D9;fontSize=12;fontColor=#ffffff;align=center;strokeColor=#0E7DAD;metaEdit=1;points=[[0.5,0,0],[1,0.25,0],[1,0.5,0],[1,0.75,0],[0.5,1,0],[0,0.75,0],[0,0.5,0],[0,0.25,0]];resizable=0;" parent="1" vertex="1">
            <mxGeometry x="650" y="700" width="240" height="120" as="geometry" />
          </mxCell>
        </object>
        <mxCell id="HwbPbKse9-UZTt6arCgf-103" style="edgeStyle=orthogonalEdgeStyle;rounded=0;orthogonalLoop=1;jettySize=auto;html=1;entryX=0;entryY=0.5;entryDx=0;entryDy=0;entryPerimeter=0;" parent="1" source="HwbPbKse9-UZTt6arCgf-12" target="HwbPbKse9-UZTt6arCgf-101" edge="1">
          <mxGeometry relative="1" as="geometry">
            <Array as="points">
              <mxPoint x="610" y="940" />
              <mxPoint x="610" y="610" />
            </Array>
          </mxGeometry>
        </mxCell>
        <object placeholders="1" c4Name="Государственные регистрационные органы" c4Type="Software System" c4Description="Отвечают за регистрационные действия с объектами недвижимости" label="&lt;font style=&quot;font-size: 16px&quot;&gt;&lt;b&gt;%c4Name%&lt;/b&gt;&lt;/font&gt;&lt;div&gt;[%c4Type%]&lt;/div&gt;&lt;br&gt;&lt;div&gt;&lt;font style=&quot;font-size: 11px&quot;&gt;&lt;font color=&quot;#cccccc&quot;&gt;%c4Description%&lt;/font&gt;&lt;/div&gt;" id="HwbPbKse9-UZTt6arCgf-104">
          <mxCell style="rounded=1;whiteSpace=wrap;html=1;labelBackgroundColor=none;fillColor=#8C8496;fontColor=#ffffff;align=center;arcSize=10;strokeColor=#736782;metaEdit=1;resizable=0;points=[[0.25,0,0],[0.5,0,0],[0.75,0,0],[1,0.25,0],[1,0.5,0],[1,0.75,0],[0.75,1,0],[0.5,1,0],[0.25,1,0],[0,0.75,0],[0,0.5,0],[0,0.25,0]];" parent="1" vertex="1">
            <mxGeometry x="-880" y="610" width="240" height="120" as="geometry" />
          </mxCell>
        </object>
        <mxCell id="HwbPbKse9-UZTt6arCgf-105" style="edgeStyle=orthogonalEdgeStyle;rounded=0;orthogonalLoop=1;jettySize=auto;html=1;entryX=1;entryY=0.5;entryDx=0;entryDy=0;entryPerimeter=0;exitX=0;exitY=0.5;exitDx=0;exitDy=0;exitPerimeter=0;" parent="1" source="HwbPbKse9-UZTt6arCgf-41" target="HwbPbKse9-UZTt6arCgf-104" edge="1">
          <mxGeometry relative="1" as="geometry">
            <Array as="points">
              <mxPoint x="320" y="610" />
              <mxPoint x="320" y="680" />
              <mxPoint x="-140" y="680" />
              <mxPoint x="-140" y="670" />
              <mxPoint x="-610" y="670" />
            </Array>
          </mxGeometry>
        </mxCell>
        <mxCell id="HwbPbKse9-UZTt6arCgf-106" value="СМЭВ&lt;div&gt;[SOAP]&lt;/div&gt;" style="edgeLabel;html=1;align=center;verticalAlign=middle;resizable=0;points=[];" parent="HwbPbKse9-UZTt6arCgf-105" connectable="0" vertex="1">
          <mxGeometry x="0.1438" y="2" relative="1" as="geometry">
            <mxPoint x="50" y="-2" as="offset" />
          </mxGeometry>
        </mxCell>
        <object placeholders="1" c4Name="Клиент" c4Type="Person" c4Description="Клиент" label="&lt;font style=&quot;font-size: 16px&quot;&gt;&lt;b&gt;%c4Name%&lt;/b&gt;&lt;/font&gt;&lt;div&gt;[%c4Type%]&lt;/div&gt;&lt;br&gt;&lt;div&gt;&lt;font style=&quot;font-size: 11px&quot;&gt;&lt;font color=&quot;#cccccc&quot;&gt;%c4Description%&lt;/font&gt;&lt;/div&gt;" id="HwbPbKse9-UZTt6arCgf-107">
          <mxCell style="html=1;fontSize=11;dashed=0;whiteSpace=wrap;fillColor=#083F75;strokeColor=#06315C;fontColor=#ffffff;shape=mxgraph.c4.person2;align=center;metaEdit=1;points=[[0.5,0,0],[1,0.5,0],[1,0.75,0],[0.75,1,0],[0.5,1,0],[0.25,1,0],[0,0.75,0],[0,0.5,0]];resizable=0;" parent="1" vertex="1">
            <mxGeometry x="350" y="40" width="200" height="180" as="geometry" />
          </mxCell>
        </object>
        <object placeholders="1" c4Name="Собственник" c4Type="Person" c4Description="Клиент" label="&lt;font style=&quot;font-size: 16px&quot;&gt;&lt;b&gt;%c4Name%&lt;/b&gt;&lt;/font&gt;&lt;div&gt;[%c4Type%]&lt;/div&gt;&lt;br&gt;&lt;div&gt;&lt;font style=&quot;font-size: 11px&quot;&gt;&lt;font color=&quot;#cccccc&quot;&gt;%c4Description%&lt;/font&gt;&lt;/div&gt;" id="HwbPbKse9-UZTt6arCgf-108">
          <mxCell style="html=1;fontSize=11;dashed=0;whiteSpace=wrap;fillColor=#083F75;strokeColor=#06315C;fontColor=#ffffff;shape=mxgraph.c4.person2;align=center;metaEdit=1;points=[[0.5,0,0],[1,0.5,0],[1,0.75,0],[0.75,1,0],[0.5,1,0],[0.25,1,0],[0,0.75,0],[0,0.5,0]];resizable=0;" parent="1" vertex="1">
            <mxGeometry x="1410" y="30" width="200" height="180" as="geometry" />
          </mxCell>
        </object>
        <mxCell id="HwbPbKse9-UZTt6arCgf-116" style="edgeStyle=orthogonalEdgeStyle;rounded=0;orthogonalLoop=1;jettySize=auto;html=1;" parent="1" source="HwbPbKse9-UZTt6arCgf-109" target="HwbPbKse9-UZTt6arCgf-115" edge="1">
          <mxGeometry relative="1" as="geometry" />
        </mxCell>
        <mxCell id="HwbPbKse9-UZTt6arCgf-119" value="&lt;span style=&quot;color: rgba(0, 0, 0, 0); font-family: monospace; font-size: 0px; text-align: start; background-color: rgb(27, 29, 30);&quot;&gt;%3CmxGraphModel%3E%3Croot%3E%3CmxCell%20id%3D%220%22%2F%3E%3CmxCell%20id%3D%221%22%20parent%3D%220%22%2F%3E%3CmxCell%20id%3D%222%22%20value%3D%22%26lt%3Bdiv%26gt%3B%5BJDBC%5D%26lt%3B%2Fdiv%26gt%3B%22%20style%3D%22edgeLabel%3Bhtml%3D1%3Balign%3Dcenter%3BverticalAlign%3Dmiddle%3Bresizable%3D0%3Bpoints%3D%5B%5D%3B%22%20connectable%3D%220%22%20vertex%3D%221%22%20parent%3D%221%22%3E%3CmxGeometry%20x%3D%221730%22%20y%3D%22831.0000000000002%22%20as%3D%22geometry%22%2F%3E%3C%2FmxCell%3E%3C%2Froot%3E%3C%2FmxGraphModel%3E&lt;/span&gt;" style="edgeLabel;html=1;align=center;verticalAlign=middle;resizable=0;points=[];" parent="HwbPbKse9-UZTt6arCgf-116" vertex="1" connectable="0">
          <mxGeometry x="-0.2286" y="-5" relative="1" as="geometry">
            <mxPoint as="offset" />
          </mxGeometry>
        </mxCell>
        <mxCell id="HwbPbKse9-UZTt6arCgf-121" value="[JDBC]" style="edgeLabel;html=1;align=center;verticalAlign=middle;resizable=0;points=[];" parent="HwbPbKse9-UZTt6arCgf-116" vertex="1" connectable="0">
          <mxGeometry x="-0.1333" y="2" relative="1" as="geometry">
            <mxPoint as="offset" />
          </mxGeometry>
        </mxCell>
        <mxCell id="HwbPbKse9-UZTt6arCgf-126" style="edgeStyle=orthogonalEdgeStyle;rounded=0;orthogonalLoop=1;jettySize=auto;html=1;" parent="1" source="HwbPbKse9-UZTt6arCgf-109" target="HwbPbKse9-UZTt6arCgf-123" edge="1">
          <mxGeometry relative="1" as="geometry">
            <Array as="points">
              <mxPoint x="2140" y="790" />
            </Array>
          </mxGeometry>
        </mxCell>
        <mxCell id="HwbPbKse9-UZTt6arCgf-135" style="edgeStyle=orthogonalEdgeStyle;rounded=0;orthogonalLoop=1;jettySize=auto;html=1;" parent="1" source="HwbPbKse9-UZTt6arCgf-109" target="HwbPbKse9-UZTt6arCgf-111" edge="1">
          <mxGeometry relative="1" as="geometry">
            <Array as="points">
              <mxPoint x="2050" y="700" />
              <mxPoint x="2570" y="700" />
            </Array>
          </mxGeometry>
        </mxCell>
        <object placeholders="1" c4Name="smart-intercom-app" c4Type="Container" c4Technology="Container: Kotlin, SpringBoot" c4Description="Интеллектуальный домофон. &#xa;(Открытие по звонку. Распознавать пользователей по биометрии)" label="&lt;font style=&quot;font-size: 16px&quot;&gt;&lt;b&gt;%c4Name%&lt;/b&gt;&lt;/font&gt;&lt;div&gt;[%c4Type%: %c4Technology%]&lt;/div&gt;&lt;br&gt;&lt;div&gt;&lt;font style=&quot;font-size: 11px&quot;&gt;&lt;font color=&quot;#E6E6E6&quot;&gt;%c4Description%&lt;/font&gt;&lt;/div&gt;" id="HwbPbKse9-UZTt6arCgf-109">
          <mxCell style="rounded=1;whiteSpace=wrap;html=1;fontSize=11;labelBackgroundColor=none;fillColor=#23A2D9;fontColor=#ffffff;align=center;arcSize=10;strokeColor=#0E7DAD;metaEdit=1;resizable=0;points=[[0.25,0,0],[0.5,0,0],[0.75,0,0],[1,0.25,0],[1,0.5,0],[1,0.75,0],[0.75,1,0],[0.5,1,0],[0.25,1,0],[0,0.75,0],[0,0.5,0],[0,0.25,0]];" parent="1" vertex="1">
            <mxGeometry x="1880" y="730" width="240" height="120" as="geometry" />
          </mxCell>
        </object>
        <mxCell id="HwbPbKse9-UZTt6arCgf-117" style="edgeStyle=orthogonalEdgeStyle;rounded=0;orthogonalLoop=1;jettySize=auto;html=1;" parent="1" source="HwbPbKse9-UZTt6arCgf-110" target="HwbPbKse9-UZTt6arCgf-114" edge="1">
          <mxGeometry relative="1" as="geometry" />
        </mxCell>
        <mxCell id="HwbPbKse9-UZTt6arCgf-122" value="[JDBC]" style="edgeLabel;html=1;align=center;verticalAlign=middle;resizable=0;points=[];" parent="HwbPbKse9-UZTt6arCgf-117" vertex="1" connectable="0">
          <mxGeometry x="-0.2571" y="2" relative="1" as="geometry">
            <mxPoint x="-2" y="4" as="offset" />
          </mxGeometry>
        </mxCell>
        <mxCell id="HwbPbKse9-UZTt6arCgf-125" style="edgeStyle=orthogonalEdgeStyle;rounded=0;orthogonalLoop=1;jettySize=auto;html=1;" parent="1" source="HwbPbKse9-UZTt6arCgf-110" target="HwbPbKse9-UZTt6arCgf-123" edge="1">
          <mxGeometry relative="1" as="geometry">
            <Array as="points">
              <mxPoint x="2140" y="790" />
            </Array>
          </mxGeometry>
        </mxCell>
        <mxCell id="HwbPbKse9-UZTt6arCgf-136" style="edgeStyle=orthogonalEdgeStyle;rounded=0;orthogonalLoop=1;jettySize=auto;html=1;" parent="1" source="HwbPbKse9-UZTt6arCgf-110" target="HwbPbKse9-UZTt6arCgf-111" edge="1">
          <mxGeometry relative="1" as="geometry">
            <Array as="points">
              <mxPoint x="2330" y="700" />
              <mxPoint x="2570" y="700" />
            </Array>
          </mxGeometry>
        </mxCell>
        <object placeholders="1" c4Name="smart-gate-app" c4Type="Container" c4Technology="Container: Kotlin, SpringBoot" c4Description="Классическое управление шлагбаумом и автоматический доступ по распознанным номерам" label="&lt;font style=&quot;font-size: 16px&quot;&gt;&lt;b&gt;%c4Name%&lt;/b&gt;&lt;/font&gt;&lt;div&gt;[%c4Type%: %c4Technology%]&lt;/div&gt;&lt;br&gt;&lt;div&gt;&lt;font style=&quot;font-size: 11px&quot;&gt;&lt;font color=&quot;#E6E6E6&quot;&gt;%c4Description%&lt;/font&gt;&lt;/div&gt;" id="HwbPbKse9-UZTt6arCgf-110">
          <mxCell style="rounded=1;whiteSpace=wrap;html=1;fontSize=11;labelBackgroundColor=none;fillColor=#23A2D9;fontColor=#ffffff;align=center;arcSize=10;strokeColor=#0E7DAD;metaEdit=1;resizable=0;points=[[0.25,0,0],[0.5,0,0],[0.75,0,0],[1,0.25,0],[1,0.5,0],[1,0.75,0],[0.75,1,0],[0.5,1,0],[0.25,1,0],[0,0.75,0],[0,0.5,0],[0,0.25,0]];" parent="1" vertex="1">
            <mxGeometry x="2160" y="730" width="240" height="120" as="geometry" />
          </mxCell>
        </object>
        <object placeholders="1" c4Name="Партнёр сервисов &#xa;&quot;Умный дом&quot;" c4Type="Software System" c4Description="" label="&lt;font style=&quot;font-size: 16px&quot;&gt;&lt;b&gt;%c4Name%&lt;/b&gt;&lt;/font&gt;&lt;div&gt;[%c4Type%]&lt;/div&gt;&lt;br&gt;&lt;div&gt;&lt;font style=&quot;font-size: 11px&quot;&gt;&lt;font color=&quot;#cccccc&quot;&gt;%c4Description%&lt;/font&gt;&lt;/div&gt;" id="HwbPbKse9-UZTt6arCgf-111">
          <mxCell style="rounded=1;whiteSpace=wrap;html=1;labelBackgroundColor=none;fillColor=#8C8496;fontColor=#ffffff;align=center;arcSize=10;strokeColor=#736782;metaEdit=1;resizable=0;points=[[0.25,0,0],[0.5,0,0],[0.75,0,0],[1,0.25,0],[1,0.5,0],[1,0.75,0],[0.75,1,0],[0.5,1,0],[0.25,1,0],[0,0.75,0],[0,0.5,0],[0,0.25,0]];" parent="1" vertex="1">
            <mxGeometry x="2450" y="730" width="240" height="120" as="geometry" />
          </mxCell>
        </object>
        <object placeholders="1" c4Name="smart-gate-db" c4Type="Container" c4Technology="PostgreSQL" c4Description="База данных Smart Gate" label="&lt;font style=&quot;font-size: 16px&quot;&gt;&lt;b&gt;%c4Name%&lt;/b&gt;&lt;/font&gt;&lt;div&gt;[%c4Type%:&amp;nbsp;%c4Technology%]&lt;/div&gt;&lt;br&gt;&lt;div&gt;&lt;font style=&quot;font-size: 11px&quot;&gt;&lt;font color=&quot;#E6E6E6&quot;&gt;%c4Description%&lt;/font&gt;&lt;/div&gt;" id="HwbPbKse9-UZTt6arCgf-114">
          <mxCell style="shape=cylinder3;size=15;whiteSpace=wrap;html=1;boundedLbl=1;rounded=0;labelBackgroundColor=none;fillColor=#23A2D9;fontSize=12;fontColor=#ffffff;align=center;strokeColor=#0E7DAD;metaEdit=1;points=[[0.5,0,0],[1,0.25,0],[1,0.5,0],[1,0.75,0],[0.5,1,0],[0,0.75,0],[0,0.5,0],[0,0.25,0]];resizable=0;" parent="1" vertex="1">
            <mxGeometry x="2160" y="910" width="240" height="120" as="geometry" />
          </mxCell>
        </object>
        <object placeholders="1" c4Name="smart-intercom-db" c4Type="Container" c4Technology="PostgreSQL" c4Description="База данных Smart Intercom" label="&lt;font style=&quot;font-size: 16px&quot;&gt;&lt;b&gt;%c4Name%&lt;/b&gt;&lt;/font&gt;&lt;div&gt;[%c4Type%:&amp;nbsp;%c4Technology%]&lt;/div&gt;&lt;br&gt;&lt;div&gt;&lt;font style=&quot;font-size: 11px&quot;&gt;&lt;font color=&quot;#E6E6E6&quot;&gt;%c4Description%&lt;/font&gt;&lt;/div&gt;" id="HwbPbKse9-UZTt6arCgf-115">
          <mxCell style="shape=cylinder3;size=15;whiteSpace=wrap;html=1;boundedLbl=1;rounded=0;labelBackgroundColor=none;fillColor=#23A2D9;fontSize=12;fontColor=#ffffff;align=center;strokeColor=#0E7DAD;metaEdit=1;points=[[0.5,0,0],[1,0.25,0],[1,0.5,0],[1,0.75,0],[0.5,1,0],[0,0.75,0],[0,0.5,0],[0,0.25,0]];resizable=0;" parent="1" vertex="1">
            <mxGeometry x="1880" y="910" width="240" height="120" as="geometry" />
          </mxCell>
        </object>
        <object placeholders="1" c4Name="user-actions-db" c4Type="Container" c4Technology="PostgreSQL" c4Description="Логи действий пользователей в сисетме Умный Дом. " label="&lt;font style=&quot;font-size: 16px&quot;&gt;&lt;b&gt;%c4Name%&lt;/b&gt;&lt;/font&gt;&lt;div&gt;[%c4Type%:&amp;nbsp;%c4Technology%]&lt;/div&gt;&lt;br&gt;&lt;div&gt;&lt;font style=&quot;font-size: 11px&quot;&gt;&lt;font color=&quot;#E6E6E6&quot;&gt;%c4Description%&lt;/font&gt;&lt;/div&gt;" id="HwbPbKse9-UZTt6arCgf-123">
          <mxCell style="shape=cylinder3;size=15;whiteSpace=wrap;html=1;boundedLbl=1;rounded=0;labelBackgroundColor=none;fillColor=#23A2D9;fontSize=12;fontColor=#ffffff;align=center;strokeColor=#0E7DAD;metaEdit=1;points=[[0.5,0,0],[1,0.25,0],[1,0.5,0],[1,0.75,0],[0.5,1,0],[0,0.75,0],[0,0.5,0],[0,0.25,0]];resizable=0;" parent="1" vertex="1">
            <mxGeometry x="2020" y="1060" width="240" height="120" as="geometry" />
          </mxCell>
        </object>
        <mxCell id="HwbPbKse9-UZTt6arCgf-129" style="edgeStyle=orthogonalEdgeStyle;rounded=0;orthogonalLoop=1;jettySize=auto;html=1;entryX=1;entryY=0.75;entryDx=0;entryDy=0;entryPerimeter=0;" parent="1" source="HwbPbKse9-UZTt6arCgf-123" target="HwbPbKse9-UZTt6arCgf-35" edge="1">
          <mxGeometry relative="1" as="geometry">
            <Array as="points">
              <mxPoint x="2130" y="1230" />
              <mxPoint x="1310" y="1230" />
              <mxPoint x="1310" y="1470" />
            </Array>
          </mxGeometry>
        </mxCell>
        <mxCell id="HwbPbKse9-UZTt6arCgf-130" value="Передача токенизированных &lt;br&gt;данных&lt;br&gt;[CDC]" style="edgeLabel;html=1;align=center;verticalAlign=middle;resizable=0;points=[];" parent="HwbPbKse9-UZTt6arCgf-129" vertex="1" connectable="0">
          <mxGeometry x="0.0075" y="-1" relative="1" as="geometry">
            <mxPoint y="-1" as="offset" />
          </mxGeometry>
        </mxCell>
        <mxCell id="HwbPbKse9-UZTt6arCgf-131" style="edgeStyle=orthogonalEdgeStyle;rounded=0;orthogonalLoop=1;jettySize=auto;html=1;entryX=1;entryY=0.75;entryDx=0;entryDy=0;entryPerimeter=0;" parent="1" source="HwbPbKse9-UZTt6arCgf-115" target="HwbPbKse9-UZTt6arCgf-35" edge="1">
          <mxGeometry relative="1" as="geometry">
            <Array as="points">
              <mxPoint x="2000" y="1230" />
              <mxPoint x="1310" y="1230" />
              <mxPoint x="1310" y="1470" />
            </Array>
          </mxGeometry>
        </mxCell>
        <mxCell id="HwbPbKse9-UZTt6arCgf-132" style="edgeStyle=orthogonalEdgeStyle;rounded=0;orthogonalLoop=1;jettySize=auto;html=1;entryX=1;entryY=0.75;entryDx=0;entryDy=0;entryPerimeter=0;" parent="1" source="HwbPbKse9-UZTt6arCgf-114" target="HwbPbKse9-UZTt6arCgf-35" edge="1">
          <mxGeometry relative="1" as="geometry">
            <Array as="points">
              <mxPoint x="2280" y="1230" />
              <mxPoint x="1310" y="1230" />
              <mxPoint x="1310" y="1470" />
            </Array>
          </mxGeometry>
        </mxCell>
      </root>
    </mxGraphModel>
  </diagram>
</mxfile>
